<svg xmlns="http://www.w3.org/2000/svg" width="20" height="20" viewBox="0 0 20 20"><g transform="translate(-10.002 -9.25)"><path d="M-4.832,0V-11.684H-8.461V0ZM-6.648-13.277a2.119,2.119,0,0,0,2.1-2.121,2.1,2.1,0,0,0-2.1-2.1,2.1,2.1,0,0,0-2.1,2.1A2.119,2.119,0,0,0-6.648-13.277ZM8.75,0h0V-6.418c0-3.141-.676-5.559-4.348-5.559A3.813,3.813,0,0,0,.973-10.09H.922v-1.594h-3.48V0H1.066V-5.785c0-1.523.289-3,2.176-3,1.859,0,1.887,1.738,1.887,3.094V0Z" transform="translate(20 28)" fill="#fff"/><rect width="20" height="20" transform="translate(10.002 9.25)" fill="none"/></g></svg>