<svg xmlns="http://www.w3.org/2000/svg" width="30" height="30" viewBox="0 0 30 30"><g transform="translate(-1190 -6006.25)"><path d="M12.187-11.25H7.5V-15a3.753,3.753,0,0,1,3.75-3.75h.469a1.4,1.4,0,0,0,1.406-1.406v-2.812a1.4,1.4,0,0,0-1.406-1.406H11.25A9.372,9.372,0,0,0,1.875-15V-.937A2.813,2.813,0,0,0,4.687,1.875h7.5A2.813,2.813,0,0,0,15-.937v-7.5A2.813,2.813,0,0,0,12.187-11.25Zm-16.875,0H-9.375V-15a3.753,3.753,0,0,1,3.75-3.75h.469A1.4,1.4,0,0,0-3.75-20.156v-2.812a1.4,1.4,0,0,0-1.406-1.406h-.469A9.372,9.372,0,0,0-15-15V-.937a2.813,2.813,0,0,0,2.812,2.812h7.5A2.813,2.813,0,0,0-1.875-.937v-7.5A2.813,2.813,0,0,0-4.688-11.25Z" transform="translate(1205 6010) rotate(180)" fill="#b61231"/><rect width="30" height="30" transform="translate(1190 6006.25)" fill="none"/></g></svg>