<svg xmlns="http://www.w3.org/2000/svg" xmlns:xlink="http://www.w3.org/1999/xlink" width="50" height="50" viewBox="0 0 50 50"><defs><clipPath id="a"><rect width="48" height="48" fill="#00215f"/></clipPath></defs><g transform="translate(-814 -1399)"><g transform="translate(815 1400)"><g clip-path="url(#a)"><path d="M17.057,21.533a1.045,1.045,0,0,1-1.015-.8,1.429,1.429,0,0,0-.865-1.006,1.339,1.339,0,0,0-.213-.025h-.65A2.316,2.316,0,0,1,12,17.383V13.92a2.316,2.316,0,0,1,2.314-2.313h.605a1.1,1.1,0,0,0,.843-.452,1.5,1.5,0,0,0,.282-1.263,1.233,1.233,0,0,0-.209-.336l-.475-.475a2.31,2.31,0,0,1,0-3.271l2.449-2.45a2.37,2.37,0,0,1,3.273,0l.43.431a1.1,1.1,0,0,0,.964.271,1.449,1.449,0,0,0,1.058-.774,1.3,1.3,0,0,0,.072-.35V2.314A2.317,2.317,0,0,1,25.921,0h3.463A2.316,2.316,0,0,1,31.7,2.314V2.92a1.1,1.1,0,0,0,.456.846,1.488,1.488,0,0,0,1.262.278,1.224,1.224,0,0,0,.333-.208l.477-.476a2.316,2.316,0,0,1,3.271,0l2.452,2.454a2.313,2.313,0,0,1-.02,3.292l-.424.412a1.1,1.1,0,0,0-.262.958,1.442,1.442,0,0,0,.775,1.057,1.309,1.309,0,0,0,.35.072h.623A2.317,2.317,0,0,1,43.3,13.921v3.463A2.316,2.316,0,0,1,40.99,19.7h-.605a1.2,1.2,0,0,0-1.037.776,1.043,1.043,0,1,1-1.91-.841,3.276,3.276,0,0,1,2.947-2.022h.605a.226.226,0,0,0,.226-.227V13.921a.228.228,0,0,0-.226-.227h-.623A3.219,3.219,0,0,1,39.08,13.4a3.538,3.538,0,0,1-1.9-2.589,3.16,3.16,0,0,1,.857-2.776l.432-.422a.226.226,0,0,0,0-.322L36.02,4.837a.224.224,0,0,0-.32,0l-.476.474a3.13,3.13,0,0,1-1.31.761,3.591,3.591,0,0,1-3.047-.663A3.166,3.166,0,0,1,29.611,2.92V2.314a.227.227,0,0,0-.226-.227H25.921a.228.228,0,0,0-.227.227v.624a3.179,3.179,0,0,1-.3,1.293,3.532,3.532,0,0,1-2.59,1.891,3.157,3.157,0,0,1-2.77-.857l-.43-.431a.2.2,0,0,0-.32,0l-2.449,2.45a.221.221,0,0,0-.067.161.218.218,0,0,0,.066.159l.476.476A3.124,3.124,0,0,1,18.073,9.4a3.6,3.6,0,0,1-.67,3.043,3.167,3.167,0,0,1-2.483,1.248h-.605a.227.227,0,0,0-.227.226v3.463a.226.226,0,0,0,.226.227h.65a2.922,2.922,0,0,1,1,.179,3.548,3.548,0,0,1,2.107,2.461,1.045,1.045,0,0,1-.778,1.255,1.1,1.1,0,0,1-.239.027" transform="translate(0.522)" fill="#00215f"/><path d="M27.246,21.16a5.913,5.913,0,1,1,5.913-5.913,5.92,5.92,0,0,1-5.913,5.913m0-9.74a3.826,3.826,0,1,0,3.826,3.826,3.831,3.831,0,0,0-3.826-3.826" transform="translate(0.928 0.406)" fill="#00215f"/><path d="M14.543,41.342a1.043,1.043,0,0,1-.738-1.781l2.609-2.609A4.3,4.3,0,0,1,19.239,35.6H31.761A2.975,2.975,0,0,0,33.934,35c.122-.09.239-.174.359-.25l9.43-7.346c.788-.7,1.6-1.416,1.6-2.232a2.221,2.221,0,0,0-1.272-1.783,2,2,0,0,0-2.225.49l-8.181,6.586a4.728,4.728,0,0,1-2.85.967H18.2a1.043,1.043,0,0,1,0-2.087H30.8a2.613,2.613,0,0,0,1.566-.526L40.5,22.268a4.045,4.045,0,0,1,4.431-.777,4.3,4.3,0,0,1,2.485,3.677c0,1.758-1.28,2.888-2.308,3.8l-.129.115-9.443,7.347a1.068,1.068,0,0,1-.1.069c-.088.053-.17.116-.257.181a4.98,4.98,0,0,1-3.414,1.014H19.239a2.258,2.258,0,0,0-1.348.737l-2.61,2.61a1.041,1.041,0,0,1-.738.306" transform="translate(0.587 0.919)" fill="#00215f"/><path d="M6.043,32.391a1.043,1.043,0,0,1-.738-1.781l5.217-5.217A7.415,7.415,0,0,1,15.435,23H29.6a4.174,4.174,0,0,1,0,8.348H19.609a1.043,1.043,0,0,1,0-2.087H29.6a2.087,2.087,0,0,0,0-4.174H15.435A5.261,5.261,0,0,0,12,26.867L6.781,32.086a1.041,1.041,0,0,1-.738.306" transform="translate(0.217 1)" fill="#00215f"/><path d="M14.609,46.783A1.043,1.043,0,0,1,13.871,45l2.393-2.393L4.174,30.519,1.781,32.912A1.043,1.043,0,0,1,.306,31.436l3.13-3.13a1.042,1.042,0,0,1,1.475,0L18.477,41.871a1.042,1.042,0,0,1,0,1.475l-3.13,3.13a1.041,1.041,0,0,1-.738.306" transform="translate(0 1.217)" fill="#00215f"/></g></g><rect width="50" height="50" transform="translate(814 1399)" fill="none"/></g></svg>