<svg xmlns="http://www.w3.org/2000/svg" xmlns:xlink="http://www.w3.org/1999/xlink" width="128" height="128" viewBox="0 0 128 128"><defs><clipPath id="a"><rect width="126.33" height="108.279" fill="#fff"/></clipPath></defs><g transform="translate(-374.057 -6848.435)"><rect width="128" height="128" transform="translate(374.057 6848.435)" fill="none"/><g transform="translate(374.057 6858.435)"><g transform="translate(0 0.001)" clip-path="url(#a)"><path d="M46.854,46.375H14.23a2.124,2.124,0,0,1,0-4.249H46.854a2.124,2.124,0,0,1,0,4.249" transform="translate(8.469 29.47)" fill="#fff"/><path d="M27.808,53.576H16.415a2.124,2.124,0,1,1,0-4.249H27.808a2.124,2.124,0,1,1,0,4.249" transform="translate(9.998 34.507)" fill="#fff"/><path d="M30.919,25.186H9.747a2.124,2.124,0,0,1,0-4.249H30.919a2.124,2.124,0,0,1,0,4.249" transform="translate(5.333 14.646)" fill="#fff"/><path d="M40.686,35.589H19.692a2.124,2.124,0,0,1,0-4.249H40.686a2.124,2.124,0,0,1,0,4.249" transform="translate(12.29 21.924)" fill="#fff"/><path d="M14.721,53.576H6.69a2.124,2.124,0,1,1,0-4.249h8.031a2.124,2.124,0,1,1,0,4.249" transform="translate(3.194 34.507)" fill="#fff"/><path d="M18,35.589H9.967a2.124,2.124,0,0,1,0-4.249H18a2.124,2.124,0,0,1,0,4.249" transform="translate(5.487 21.924)" fill="#fff"/><path d="M6.958,35.589H2.124a2.124,2.124,0,0,1,0-4.249H6.958a2.124,2.124,0,0,1,0,4.249" transform="translate(0 21.924)" fill="#fff"/><path d="M70.117,15.894H65.868V8.862a4.619,4.619,0,0,0-4.613-4.613h-13a4.621,4.621,0,0,0-4.616,4.613v7.033H39.387V8.862A8.873,8.873,0,0,1,48.252,0h13a8.872,8.872,0,0,1,8.862,8.862Z" transform="translate(27.554 -0.001)" fill="#fff"/><path d="M76.66,25.415a50.593,50.593,0,0,0-12.1-11.04l2.317-3.562A54.781,54.781,0,0,1,79.993,22.779Z" transform="translate(45.163 7.563)" fill="#fff"/><rect width="4.249" height="11.229" transform="translate(80.185 11.46)" fill="#fff"/><path d="M55.8,82.154a31.238,31.238,0,0,1-17.9-5.592l2.424-3.489A27.168,27.168,0,1,0,55.8,23.571V19.322a31.416,31.416,0,0,1,0,62.832" transform="translate(26.513 13.516)" fill="#fff"/><path d="M66.108,99.953a44.31,44.31,0,0,1-42.95-34.316L27.3,64.7a39.768,39.768,0,1,0,2.152-24.255l-3.914-1.657A44.029,44.029,0,1,1,66.108,99.953" transform="translate(16.201 8.327)" fill="#fff"/><path d="M22.584,44.039q-.061-1.15-.059-2.317a44.238,44.238,0,0,1,1.028-9.509l4.15.914a39.994,39.994,0,0,0-.93,8.595q0,1.053.054,2.094Z" transform="translate(15.758 22.535)" fill="#fff"/><path d="M52.486,51.719a9.857,9.857,0,1,1,9.856-9.856,9.868,9.868,0,0,1-9.856,9.856m0-15.464a5.608,5.608,0,1,0,5.607,5.609,5.615,5.615,0,0,0-5.607-5.609" transform="translate(29.822 22.39)" fill="#fff"/><rect width="8.291" height="4.249" transform="translate(87.45 57.875) rotate(-38.846)" fill="#fff"/><rect width="23.525" height="4.249" transform="matrix(0.779, -0.627, 0.627, 0.779, 56.948, 82.439)" fill="#fff"/></g></g></g></svg>