<svg xmlns="http://www.w3.org/2000/svg" xmlns:xlink="http://www.w3.org/1999/xlink" width="50" height="50" viewBox="0 0 50 50"><defs><clipPath id="a"><rect width="48" height="48" fill="#00215f"/></clipPath></defs><g transform="translate(-814 -1581)"><g transform="translate(815 1582)"><g clip-path="url(#a)"><path d="M27,38.678a1,1,0,0,1-1-1V31a1,1,0,0,1,.619-.925A6.387,6.387,0,0,0,31,24a6.046,6.046,0,0,0-3-5.369V24a1,1,0,0,1-1,1H21a1,1,0,0,1-1-1V18.631A6.046,6.046,0,0,0,17,24a6.387,6.387,0,0,0,4.381,6.075A1,1,0,0,1,22,31v6.678a1,1,0,0,1-2,0V31.65A8.181,8.181,0,0,1,15,24c0-3.617,2-6.431,5.619-7.925A1,1,0,0,1,22,17v6h4V17a1,1,0,0,1,1.381-.925C31,17.569,33,20.383,33,24a8.179,8.179,0,0,1-5,7.65v6.028a1,1,0,0,1-1,1" fill="#00215f"/><path d="M26.981,48H21.019a2.749,2.749,0,0,1-2.746-2.746V44.047A2.524,2.524,0,0,0,16.611,41.8a2.49,2.49,0,0,0-2.735.42l-.855.857a2.812,2.812,0,0,1-3.883,0L4.922,38.862a2.746,2.746,0,0,1,0-3.883l.857-.856A2.487,2.487,0,0,0,6.2,31.389a2.523,2.523,0,0,0-2.247-1.663H2.747A2.751,2.751,0,0,1,0,26.981V21.018a2.747,2.747,0,0,1,2.745-2.746H3.953A2.523,2.523,0,0,0,6.2,16.611a2.487,2.487,0,0,0-.421-2.734l-.857-.857a2.753,2.753,0,0,1,0-3.883L9.138,4.922a2.748,2.748,0,0,1,3.883,0l.856.856a2.487,2.487,0,0,0,2.734.421,2.524,2.524,0,0,0,1.663-2.246V2.746A2.748,2.748,0,0,1,21.02,0h5.962a2.749,2.749,0,0,1,2.746,2.746V3.953A2.523,2.523,0,0,0,31.389,6.2a2.492,2.492,0,0,0,2.735-.421l.856-.856a2.752,2.752,0,0,1,3.883,0l4.215,4.217a2.745,2.745,0,0,1,0,3.882l-.856.857A2.485,2.485,0,0,0,41.8,16.61a2.524,2.524,0,0,0,2.247,1.663h1.2A2.751,2.751,0,0,1,48,21.018v5.963a2.743,2.743,0,0,1-2.745,2.746H44.048A2.526,2.526,0,0,0,41.8,31.39a2.487,2.487,0,0,0,.421,2.734l.855.855a2.749,2.749,0,0,1,0,3.883l-4.216,4.217a2.75,2.75,0,0,1-3.882,0l-.857-.858a2.486,2.486,0,0,0-2.733-.42,2.521,2.521,0,0,0-1.663,2.246v1.206A2.749,2.749,0,0,1,26.981,48M15.513,39.575a4.858,4.858,0,0,1,1.867.38,4.512,4.512,0,0,1,2.893,4.092v1.207a.747.747,0,0,0,.746.746h5.962a.747.747,0,0,0,.746-.746V44.048a4.682,4.682,0,0,1,7.81-3.24l.857.857a.747.747,0,0,0,1.054,0l4.216-4.217a.748.748,0,0,0,0-1.055l-.854-.855a4.681,4.681,0,0,1,3.24-7.811h1.206A.743.743,0,0,0,46,26.982V21.019a.748.748,0,0,0-.747-.746h-1.2a4.511,4.511,0,0,1-4.093-2.893,4.475,4.475,0,0,1,.853-4.917l.856-.857a.744.744,0,0,0,0-1.052L37.449,6.336a.748.748,0,0,0-1.055,0l-.856.855a4.479,4.479,0,0,1-4.918.853,4.51,4.51,0,0,1-2.892-4.092V2.746A.747.747,0,0,0,26.982,2H21.02a.747.747,0,0,0-.746.746V3.953a4.509,4.509,0,0,1-2.9,4.092,4.474,4.474,0,0,1-4.916-.853l-.856-.856a.747.747,0,0,0-1.055,0L6.336,10.551a.748.748,0,0,0,0,1.055l.856.857a4.473,4.473,0,0,1,.852,4.917,4.508,4.508,0,0,1-4.092,2.892H2.746A.746.746,0,0,0,2,21.017V26.98a.748.748,0,0,0,.747.746H3.953a4.51,4.51,0,0,1,4.093,2.9,4.474,4.474,0,0,1-.853,4.916l-.857.856a.747.747,0,0,0,0,1.055l4.216,4.216a.766.766,0,0,0,1.055,0l.855-.857a4.289,4.289,0,0,1,3.051-1.232" fill="#00215f"/><path d="M27,38.678a1,1,0,0,1-.212-1.977A13.069,13.069,0,0,0,37,24a12.925,12.925,0,0,0-2.263-7.332,1,1,0,0,1,1.651-1.129A14.917,14.917,0,0,1,39,24,15.081,15.081,0,0,1,27.213,38.655a.98.98,0,0,1-.214.023" fill="#00215f"/><path d="M21,38.678a.98.98,0,0,1-.214-.023A15,15,0,0,1,24,9a14.929,14.929,0,0,1,8.314,2.513A1,1,0,1,1,31.2,13.177,13,13,0,1,0,21.212,36.7,1,1,0,0,1,21,38.678" fill="#00215f"/></g></g><rect width="50" height="50" transform="translate(814 1581)" fill="none"/></g></svg>