<svg xmlns="http://www.w3.org/2000/svg" xmlns:xlink="http://www.w3.org/1999/xlink" width="128" height="128" viewBox="0 0 128 128"><defs><clipPath id="a"><rect width="120" height="116.87" fill="#fff"/></clipPath></defs><g transform="translate(-373.057 -6848.435)"><g transform="translate(377.057 6854)"><g transform="translate(0 0.001)" clip-path="url(#a)"><path d="M40.454,50.646c-.026,0-.052,0-.076,0a2.139,2.139,0,0,1-1.664-.889L24.627,30.25a2.146,2.146,0,1,1,3.479-2.512L40.577,45.005,64.771,16.086a2.147,2.147,0,1,1,3.293,2.754L42.1,49.877a2.143,2.143,0,0,1-1.647.769" transform="translate(17.367 10.983)" fill="#fff"/><path d="M11.488,89.376,8.27,86.536c6.592-7.468,12.241-9.116,12.48-9.183a2.231,2.231,0,0,1,.52-.079l40.156-1.087,1.8-.45,43.076-23.09c3-1.611,4.31-5.036,2.917-7.636-1.32-2.459-4.753-3.1-7.811-1.46L80.5,54.243l-1.952-3.822,20.873-10.67c5.141-2.759,11.125-1.348,13.586,3.23,2.512,4.689.416,10.721-4.672,13.45L65.025,79.646a2.123,2.123,0,0,1-.493.191l-2.291.574a2.109,2.109,0,0,1-.464.064L21.7,81.557c-.96.355-5.218,2.157-10.217,7.82" transform="translate(5.93 27.494)" fill="#fff"/><path d="M2.905,65.9,0,62.745,18.577,45.684c9.7-6.546,20.94-3.127,21.414-2.976,4.748,1.248,14.022,1.556,14.116,1.559l15.783,0c5.919,0,10.732,4.325,10.732,9.643s-4.813,9.64-10.732,9.64H47.962V59.256H69.89c3.551,0,6.439-2.4,6.439-5.347s-2.888-5.35-6.439-5.35H54.038c-.469-.012-9.921-.328-15.236-1.726-.189-.06-9.767-2.922-17.695,2.321Z" transform="translate(0 29.889)" fill="#fff"/><path d="M22.623,62.137a2.147,2.147,0,0,1-1.755-.908A41.82,41.82,0,0,1,25.959,7.117,2.147,2.147,0,1,1,28.949,10.2a37.526,37.526,0,0,0-4.574,48.554,2.146,2.146,0,0,1-1.751,3.384" transform="translate(9.495 4.669)" fill="#fff"/><path d="M79.3,64.537a2.147,2.147,0,0,1-1.832-3.259A37.54,37.54,0,0,0,29.791,7.672a2.147,2.147,0,0,1-1.786-3.9A41.449,41.449,0,0,1,45.368,0,41.827,41.827,0,0,1,81.135,63.5,2.142,2.142,0,0,1,79.3,64.537" transform="translate(19.184 -0.001)" fill="#fff"/></g></g><rect width="128" height="128" transform="translate(373.057 6848.435)" fill="none"/></g></svg>