<svg xmlns="http://www.w3.org/2000/svg" xmlns:xlink="http://www.w3.org/1999/xlink" width="128" height="128" viewBox="0 0 128 128"><defs><clipPath id="a"><rect width="120" height="109.19" fill="#fff"/></clipPath></defs><g transform="translate(-373.057 -6848.435)"><rect width="128" height="128" transform="translate(373.057 6848.435)" fill="none"/><g transform="translate(377.057 6857.435)"><g transform="translate(0 0)" clip-path="url(#a)"><path d="M19.732,23.689a26.442,26.442,0,0,1-3.653-.239,2.169,2.169,0,0,1,.6-4.3c.649.092,15.945,2.055,20.706-9.594A2.17,2.17,0,0,1,41.3,9.343c.056.1,5.376,9.7,12.54,9.7a2.169,2.169,0,1,1,0,4.339c-6.579,0-11.6-5.222-14.257-8.774C34.761,21.747,26,23.689,19.732,23.689" transform="translate(10.451 6.04)" fill="#fff"/><path d="M2.168,58.763a2.17,2.17,0,0,1-.533-4.273c19.373-4.93,22.891-8.412,23.432-9.122,0-1.38.009-7.041,0-9.859a2.169,2.169,0,0,1,2.162-2.175h.007A2.169,2.169,0,0,1,29.406,35.5c.009,2.982,0,9.141,0,10.067.323,4.123-8.656,8.538-26.7,13.129a2.116,2.116,0,0,1-.536.069M25.1,46.035v0m-.01-.068a.494.494,0,0,0,.01.068.456.456,0,0,1-.01-.068" transform="translate(-0.001 24.516)" fill="#fff"/><path d="M37.572,52.371a2.147,2.147,0,0,1-.932-.212c-4.752-2.267-7.077-4.483-6.918-6.591,0-.918-.012-7.088,0-10.073a2.169,2.169,0,0,1,2.169-2.161H31.9a2.169,2.169,0,0,1,2.161,2.178c-.012,2.811,0,8.462,0,9.849.269.338,1.274,1.368,4.448,2.881a2.17,2.17,0,0,1-.935,4.129m-3.54-6.333,0,.005,0-.005m0-.007v0m0-.005,0,.005,0-.005m0-.007v0m0-.005,0,.005,0-.005m.005-.033-.005.033Zm0-.005v0Z" transform="translate(21.854 24.516)" fill="#fff"/><path d="M26.6,63.789a2.224,2.224,0,0,1-.508-.061,15.633,15.633,0,0,1-6.105-2.8C12.94,55.837,9.433,40.9,8.471,32.849,7.123,21.629,8.787,13.5,13.556,8,17.97,2.907,25.007.215,34.474,0h.186c9.516.215,16.553,2.905,20.968,8,4.769,5.5,6.433,13.63,5.087,24.853C59.751,40.9,56.243,55.84,49.2,60.93a15.581,15.581,0,0,1-6.1,2.8,2.17,2.17,0,0,1-1.015-4.219,11.492,11.492,0,0,0,4.377-1.942c.045-.038.108-.089.156-.121,4.873-3.461,8.617-15.251,9.8-25.112,1.192-9.941-.135-16.971-4.058-21.494-3.58-4.129-9.548-6.315-17.738-6.5-8.23.187-14.2,2.374-17.776,6.5-3.922,4.524-5.25,11.555-4.056,21.494,1.178,9.859,4.922,21.652,9.793,25.112a1.636,1.636,0,0,1,.172.135,11.588,11.588,0,0,0,4.363,1.928,2.17,2.17,0,0,1-.507,4.28" transform="translate(5.898 0)" fill="#fff"/><path d="M55.524,64.959c-.026,0-.052,0-.076,0a2.176,2.176,0,0,1-1.683-.9L44.691,51.494a2.17,2.17,0,1,1,3.518-2.541L55.65,59.258,70.588,41.4a2.169,2.169,0,1,1,3.327,2.785L57.186,64.182a2.168,2.168,0,0,1-1.663.777" transform="translate(32.566 29.88)" fill="#fff"/><path d="M64.947,86.27A27.584,27.584,0,0,1,37.393,58.718a27.29,27.29,0,0,1,5.7-16.792,2.17,2.17,0,1,1,3.438,2.648,22.986,22.986,0,0,0-4.8,14.144A23.2,23.2,0,1,0,53.911,38.286a2.17,2.17,0,0,1-2.062-3.818,27.556,27.556,0,1,1,13.1,51.8" transform="translate(27.501 22.92)" fill="#fff"/></g></g></g></svg>