<svg xmlns="http://www.w3.org/2000/svg" xmlns:xlink="http://www.w3.org/1999/xlink" width="50" height="50" viewBox="0 0 50 50"><defs><clipPath id="a"><rect width="48" height="48" fill="#00215f"/></clipPath></defs><g transform="translate(-814 -1308)"><g transform="translate(815 1309)"><g clip-path="url(#a)"><path d="M46,27H40a1,1,0,0,1,0-2h6a1,1,0,0,1,0,2" fill="#00215f"/><path d="M30,27H1a1,1,0,0,1,0-2H30a1,1,0,0,1,0,2" fill="#00215f"/><path d="M37,30a4,4,0,1,1,4-4,4,4,0,0,1-4,4m0-6a2,2,0,1,0,2,2,2,2,0,0,0-2-2" fill="#00215f"/><path d="M46,36H22a1,1,0,0,1,0-2H46a1,1,0,0,1,0,2" fill="#00215f"/><path d="M12,36H1a1,1,0,0,1,0-2H12a1,1,0,0,1,0,2" fill="#00215f"/><path d="M15,39a4,4,0,1,1,4-4,4,4,0,0,1-4,4m0-6a2,2,0,1,0,2,2,2,2,0,0,0-2-2" fill="#00215f"/><path d="M46,45H30a1,1,0,0,1,0-2H46a1,1,0,0,1,0,2" fill="#00215f"/><path d="M20,45H1a1,1,0,0,1,0-2H20a1,1,0,0,1,0,2" fill="#00215f"/><path d="M27,48a4,4,0,1,1,4-4,4,4,0,0,1-4,4m0-6a2,2,0,1,0,2,2,2,2,0,0,0-2-2" fill="#00215f"/><path d="M47,23a1,1,0,0,1-1-1v-.726a1,1,0,0,0-1-1h-.98a4.391,4.391,0,0,1-1.737-.4,4.925,4.925,0,0,1-2.643-3.606,4.331,4.331,0,0,1,1.168-3.811l.675-.659a1,1,0,0,0,.009-1.422L37.63,6.517a1,1,0,0,0-1.414,0l-.748.747a4.29,4.29,0,0,1-1.762,1.026,5,5,0,0,1-4.248-.923,4.346,4.346,0,0,1-1.73-3.412V3a1,1,0,0,0-1-1H21.273a1,1,0,0,0-1,1v.983a4.364,4.364,0,0,1-.4,1.746,4.932,4.932,0,0,1-3.607,2.633,4.34,4.34,0,0,1-3.8-1.17l-.676-.676a.99.99,0,0,0-.707-.294h0a1,1,0,0,0-.707.293L6.516,10.372a1,1,0,0,0,0,1.414l.749.748a4.3,4.3,0,0,1,1.029,1.775,5.01,5.01,0,0,1-.936,4.243,4.343,4.343,0,0,1-3.4,1.721H3a1,1,0,0,0-1,1V22a1,1,0,1,1-2,0v-.728a3,3,0,0,1,3-3h.952a2.36,2.36,0,0,0,1.834-.958,3,3,0,0,0,.564-2.536,2.44,2.44,0,0,0-.5-.831L5.1,13.2a3,3,0,0,1,0-4.244L8.958,5.1a2.976,2.976,0,0,1,2.121-.879h0A2.978,2.978,0,0,1,13.2,5.1l.675.675a2.367,2.367,0,0,0,2.074.609,2.926,2.926,0,0,0,2.14-1.563,2.508,2.508,0,0,0,.182-.841V3a3,3,0,0,1,3-3h5.455a3,3,0,0,1,3,3v.954a2.364,2.364,0,0,0,.963,1.838,2.989,2.989,0,0,0,2.538.555,2.425,2.425,0,0,0,.824-.5L34.8,5.1a3,3,0,0,1,4.242,0l3.862,3.865a3,3,0,0,1-.026,4.268l-.667.65a2.357,2.357,0,0,0-.6,2.071,2.92,2.92,0,0,0,1.568,2.136,2.515,2.515,0,0,0,.838.182H45a3,3,0,0,1,3,3V22a1,1,0,0,1-1,1" fill="#00215f"/><path d="M32.58,22.274a1,1,0,0,1-.953-.7,8,8,0,0,0-15.254,0,1,1,0,1,1-1.906-.6,10,10,0,0,1,19.066,0,1,1,0,0,1-.65,1.256,1.034,1.034,0,0,1-.3.047" fill="#00215f"/></g></g><rect width="50" height="50" transform="translate(814 1308)" fill="none"/></g></svg>