<svg xmlns="http://www.w3.org/2000/svg" xmlns:xlink="http://www.w3.org/1999/xlink" width="50" height="50" viewBox="0 0 50 50"><defs><clipPath id="a"><rect width="48" height="48" fill="#00215f"/></clipPath></defs><g transform="translate(-814 -1489)"><g transform="translate(815 1490)"><g clip-path="url(#a)"><path d="M10.653,12c-2.8,0-5-2.636-5-6s2.2-6,5-6,5,2.636,5,6-2.2,6-5,6m0-10c-1.682,0-3,1.757-3,4s1.317,4,3,4,3-1.757,3-4-1.317-4-3-4" fill="#00215f"/><path d="M5,48a1,1,0,0,1-1-1V27a1,1,0,0,1,2,0V47a1,1,0,0,1-1,1" fill="#00215f"/><path d="M11,48a1,1,0,0,1-1-1V32a1,1,0,0,1,2,0V47a1,1,0,0,1-1,1" fill="#00215f"/><path d="M8.5,27H5a5.006,5.006,0,0,1-5-5V20a7.008,7.008,0,0,1,7-7H8a1,1,0,0,1,0,2H7a5.006,5.006,0,0,0-5,5v2a3,3,0,0,0,3,3H8.5a1.5,1.5,0,0,0,0-3H6a1,1,0,0,1,0-2H8.5a3.5,3.5,0,0,1,0,7" fill="#00215f"/><path d="M17,48a1,1,0,0,1-1-1V20.771a1,1,0,0,1,1.451-.893L21.2,21.771a1.993,1.993,0,0,0,1.66.065l3.338-1.524a1.5,1.5,0,0,0,.864-1.857,1.335,1.335,0,0,0-1.837-.773l-1.879.726a3.007,3.007,0,0,1-2.712-.279l-3.487-2.268A3.714,3.714,0,0,0,14.653,15H14a1,1,0,0,1,0-2h.654a5.648,5.648,0,0,1,3.676,1.251l.107.079,3.281,2.12a1,1,0,0,0,.9.093l1.88-.727a3.3,3.3,0,0,1,4.4,1.864,3.476,3.476,0,0,1-1.884,4.455L23.65,23.671a4.012,4.012,0,0,1-3.356-.115L18,22.4V47a1,1,0,0,1-1,1" fill="#00215f"/><path d="M35.685,29H32.316a1.989,1.989,0,0,1-1.987-1.987v-.682a1.021,1.021,0,0,0-.672-.869.988.988,0,0,0-1.072.145l-.483.483a1,1,0,1,1-1.414-1.414l.483-.483a3.08,3.08,0,0,1,5.158,2.138v.682L35.685,27l-.013-.669a3.08,3.08,0,0,1,5.158-2.137l.483.483,2.364-2.383-.484-.465a3.08,3.08,0,0,1,2.138-5.157h.682L46,13.315l-.669.014a2.983,2.983,0,0,1-2.714-1.9,2.964,2.964,0,0,1,.576-3.254l.484-.484L41.294,5.323l-.464.484a2.963,2.963,0,0,1-3.254.576,2.979,2.979,0,0,1-1.9-2.714V2.987L32.316,3l.014.669a2.984,2.984,0,0,1-1.905,2.715,2.961,2.961,0,0,1-3.253-.577l-.484-.483L24.324,7.706l.484.465a2.964,2.964,0,0,1,.576,3.254,2.983,2.983,0,0,1-2.715,1.9h-.681a1,1,0,1,1,0-2h.681a1.09,1.09,0,0,0,.725-1.743L22.91,9.1a1.991,1.991,0,0,1,0-2.81l2.383-2.383a1.991,1.991,0,0,1,2.81,0l.484.484a.988.988,0,0,0,1.071.144,1.018,1.018,0,0,0,.673-.868V2.987A1.988,1.988,0,0,1,32.316,1h3.369a1.989,1.989,0,0,1,1.987,1.987v.682a1.018,1.018,0,0,0,.672.868.989.989,0,0,0,1.071-.144L39.9,3.91a1.988,1.988,0,0,1,2.809,0l2.383,2.383a1.987,1.987,0,0,1,0,2.81l-.484.484a.988.988,0,0,0-.145,1.07,1.022,1.022,0,0,0,.869.673h.682A1.99,1.99,0,0,1,48,13.313v3.372a1.987,1.987,0,0,1-1.987,1.987h-.682a1.022,1.022,0,0,0-.869.673.989.989,0,0,0,.145,1.07l.483.483a1.99,1.99,0,0,1,0,2.81l-2.385,2.383a1.97,1.97,0,0,1-1.4.582h0a1.974,1.974,0,0,1-1.4-.582l-.485-.483a.983.983,0,0,0-1.069-.145,1.02,1.02,0,0,0-.673.868v.682A1.989,1.989,0,0,1,35.685,29" fill="#00215f"/><path d="M34,22a6.954,6.954,0,0,1-2.683-.533,1,1,0,1,1,.768-1.846,5,5,0,1,0-2.579-6.815,1,1,0,0,1-1.8-.879A7,7,0,1,1,34,22" fill="#00215f"/></g></g><rect width="50" height="50" transform="translate(814 1489)" fill="none"/></g></svg>