<svg xmlns="http://www.w3.org/2000/svg" xmlns:xlink="http://www.w3.org/1999/xlink" width="679" height="536" viewBox="0 0 679 536"><defs><clipPath id="a"><rect width="679" height="536" fill="none"/></clipPath><clipPath id="c"><rect width="202.375" height="202.448" fill="none"/></clipPath><clipPath id="d"><rect width="154.261" height="154.317" fill="none"/></clipPath><clipPath id="e"><rect width="106.291" height="106.329" fill="none"/></clipPath><clipPath id="f"><rect width="253.87" height="253.962" fill="none"/></clipPath><clipPath id="g"><rect width="193.514" height="193.584" fill="none"/></clipPath><clipPath id="h"><rect width="133.337" height="133.385" fill="none"/></clipPath><clipPath id="j"><rect width="154.261" height="154.318" fill="none"/></clipPath><clipPath id="k"><rect width="106.29" height="106.328" fill="none"/></clipPath><clipPath id="l"><rect width="318.159" height="318.276" fill="none"/></clipPath><clipPath id="m"><rect width="242.52" height="242.608" fill="none"/></clipPath><clipPath id="n"><rect width="167.104" height="167.164" fill="none"/></clipPath><clipPath id="o"><path d="M513.791,3.481C491.605,8.27,472.408,17.072,461,26.709A135.842,135.842,0,0,1,503.493,9.947c36.02-7.775,67.6-.494,77.534,16.326a15.552,15.552,0,0,0,2.229-9.123C582.162,6.262,566.466,0,544.458,0a146.975,146.975,0,0,0-30.667,3.481" transform="translate(-461 0)" fill="none"/></clipPath><linearGradient id="p" x1="-2.068" y1="11.847" x2="-2.064" y2="11.847" gradientUnits="objectBoundingBox"><stop offset="0" stop-color="#fff"/><stop offset="1" stop-color="#002469"/></linearGradient></defs><g clip-path="url(#a)"><path d="M600.532,572.741l-.011-.4-2.573-122.511L556,451.574l1.04,42.146-81.414,1.9.424,40.792-39.934.935,1.522,71.337,6.212-.065.671,6.945-.046,5.34-7.613.08.858,5.429.3,37.974.006.309,40.112-.022,45.659-1.837,40.259-.419,39.193-1.83Z" transform="translate(-189.795 -195.671)" fill="#00215f"/><g clip-path="url(#a)"><path d="M436.375,665.184a2.14,2.14,0,0,1-2.136-2.078l-.3-38.325-.835-5.112a2.139,2.139,0,0,1,2.093-2.471l5.515-.056.029-3.244-.471-4.768-4.255.044h-.021a2.138,2.138,0,0,1-2.136-2.093l-1.525-71.332a2.137,2.137,0,0,1,2.086-2.184l37.827-.884-.4-38.683a2.136,2.136,0,0,1,2.086-2.159l79.277-1.855-.989-40.007a2.139,2.139,0,0,1,2.049-2.184l41.949-1.748a2.018,2.018,0,0,1,1.552.578,2.138,2.138,0,0,1,.672,1.51l2.574,122.517-2.123.449,2.135-.066,2.708,87.849a2.141,2.141,0,0,1-2.036,2.2L562.5,662.91l-40.339.42-45.591,1.836Zm1.331-43.737.476,2.984.3,36.479,38-.019,45.57-1.836,40.327-.42,37.015-1.729-2.658-86.148L594.209,450.4l-37.674,1.569.989,40.048a2.137,2.137,0,0,1-2.086,2.184l-79.306,1.855.4,38.683a2.136,2.136,0,0,1-2.086,2.16l-37.8.885,1.431,67.094,4.1-.044h.021a2.14,2.14,0,0,1,2.127,1.93l.672,6.945-.038,5.565a2.136,2.136,0,0,1-2.115,2.118Z" transform="translate(-188.148 -194.021)" fill="#044bbc"/><path d="M565.081,389.718l-1.971-77.955-.037.008-49.934,23.891-44.891,27.463L455.083,368.5s-5.514-.446-10.531-1c-55.369,31-81.169,73.37-81.169,73.37l-2.793,1.795,1.175,35.6,41.48-.97,39.935-.933-.425-40.793,81.415-1.905-1.041-42.147,41.951-1.747Z" transform="translate(-156.928 -135.615)" fill="#00215f"/><path d="M360.12,478.764a2.135,2.135,0,0,1-2.133-2.065l-1.177-35.6a2.134,2.134,0,0,1,.98-1.869l2.393-1.538c2.928-4.576,29.436-44.445,81.679-73.694a2.2,2.2,0,0,1,1.274-.258c4.084.455,8.5.828,9.966.951l12.686-5.181,44.586-27.306,50.127-24a2.247,2.247,0,0,1,.455-.158,2.209,2.209,0,0,1,1.8.4,2.158,2.158,0,0,1,.838,1.626l1.973,77.955v.1a2.135,2.135,0,0,1-2.049,2.134l-39.851,1.66.988,40.048a2.137,2.137,0,0,1-2.086,2.184l-79.3,1.859.4,38.683a2.135,2.135,0,0,1-2.085,2.16l-81.413,1.911Zm1-36.59,1.066,32.273,77.19-1.809-.4-38.683a2.137,2.137,0,0,1,2.086-2.16l79.277-1.855-.988-40.007a2.137,2.137,0,0,1,2.049-2.184l39.851-1.661-1.843-72.62-47,22.487-44.7,27.358-13.466,5.529a2.035,2.035,0,0,1-.98.153s-5.06-.411-9.911-.933c-53.786,30.309-79.541,71.868-79.8,72.286a2.122,2.122,0,0,1-.67.686Z" transform="translate(-155.283 -133.977)" fill="#044bbc"/><path d="M920.327,172.349,836.874,208.9l-15.1,2.473-11.247,6.666-8.122-.926-6.754,6.521-34.777,16.983-41.721,10.5,1.971,77.956v.049L723.7,451.636l163.254-1.9,41.573-1.832Z" transform="translate(-312.974 -74.971)" fill="#00215f"/><path d="M722.052,452.131a2.137,2.137,0,0,1-2.135-2.093L717.343,327.52l-1.973-77.995a2.139,2.139,0,0,1,1.615-2.126l41.5-10.444,34.278-16.737,6.5-6.28a2.115,2.115,0,0,1,1.729-.586l7.409.845,10.629-6.3a2.157,2.157,0,0,1,.743-.273l14.842-2.428,83.2-36.448a2.136,2.136,0,0,1,2.991,1.894l8.2,275.558a2.139,2.139,0,0,1-2.04,2.2L885.4,450.228l-163.325,1.9Zm-2.366-201,1.931,76.246,2.528,120.458,161.139-1.875,39.4-1.738L916.64,173.929l-80.557,35.287a2.163,2.163,0,0,1-.509.152l-14.71,2.406-10.9,6.462a2.094,2.094,0,0,1-1.331.284l-7.121-.812-6.019,5.82a2.152,2.152,0,0,1-.546.384l-34.778,16.982a2.166,2.166,0,0,1-.418.153Z" transform="translate(-311.327 -73.325)" fill="#044bbc"/><path d="M256.369,656.292l-.671-6.944-6.212.065-1.522-71.337-41.481.971-1.175-35.6L188,554.555l-35.285,35.827-42.34,31.666-12.953,6.582-21.285-4.816-21.767,6.674-26.851-1.131L4.639,621.483l-.856,13.312L4.7,708.674l39.659-.565.745,43.962h.114l38.736-2.417,43.155-.929,20.035-.432,17.722-.688,14.424.052,1.289-1.323-9.823-20.043-3.306-9.94-.114-10.878,82.537-.045-.006-.31-.3-37.974-.858-5.429,7.613-.08Z" transform="translate(-1.647 -236.397)" fill="#00215f"/><path d="M43.572,752.561a2.263,2.263,0,0,1-1.505-.568,2.193,2.193,0,0,1-.745-1.534l-.709-41.831-37.527.536a2.209,2.209,0,0,1-1.52-.605,2.134,2.134,0,0,1-.647-1.5L0,633.173.861,619.7a2.135,2.135,0,0,1,2.826-1.881L26.27,625.6l26.179,1.1,21.417-6.568a2.115,2.115,0,0,1,1.1-.042L95.5,624.737l12.265-6.235,42.031-31.476,35.042-35.617a2.14,2.14,0,0,1,.364-.3L202.5,540a2.135,2.135,0,0,1,3.288,1.729l1.107,33.485,39.364-.925a2.484,2.484,0,0,1,1.526.593,2.141,2.141,0,0,1,.659,1.5l1.476,69.227,4.1-.044h.021a2.142,2.142,0,0,1,2.128,1.93l.672,6.945c0,.074.008.15.008.225l-.045,5.34a2.136,2.136,0,0,1-2.114,2.118l-5.14.054.475,2.984.321,38.292a2.514,2.514,0,0,1-.613,1.676,2.306,2.306,0,0,1-1.515.786l-80.38.044.091,8.386,3.2,9.623,9.716,19.775a2.135,2.135,0,0,1-.388,2.433l-1.289,1.323a2.13,2.13,0,0,1-1.529.644h-.008l-14.423-.053-17.631.686L82.36,750.142l-38.649,2.414h-.134m-.859-48.234a2.137,2.137,0,0,1,2.136,2.1l.706,41.729,36.62-2.283,63.276-1.365,17.686-.686,13.016.046L167.2,725.579l-3.418-10.208a2.134,2.134,0,0,1-.108-.651l-.116-10.877a2.138,2.138,0,0,1,2.133-2.16l80.389-.043-.288-36.134-.835-5.111a2.139,2.139,0,0,1,2.093-2.471l5.516-.057.029-3.132-.471-4.88-4.255.043h-.021a2.137,2.137,0,0,1-2.135-2.093l-1.477-69.2-39.338.922a2.142,2.142,0,0,1-2.184-2.066l-1.053-31.84-13.941,8.949L152.591,590.24l-42.583,31.875L96.745,628.9a2.184,2.184,0,0,1-1.44.182l-20.73-4.691-21.225,6.5a2.015,2.015,0,0,1-.715.091l-26.851-1.131a2.133,2.133,0,0,1-.605-.116L4.945,622.769l-.678,10.518.895,71.574,37.519-.534Z" transform="translate(0 -234.751)" fill="#044bbc"/><g transform="translate(10.297 333.219)" opacity="0.18"><g clip-path="url(#c)"><path d="M220.606,690.986a101.475,101.475,0,1,1,0-.006" transform="translate(-18.231 -589.762)" fill="#2478ff"/></g></g><g transform="translate(34.354 357.284)" opacity="0.3"><g clip-path="url(#d)"><path d="M215.085,709.513a77.131,77.131,0,1,1-77.14-77.159,77.131,77.131,0,0,1,77.14,77.159" transform="translate(-60.824 -632.355)" fill="#2478ff"/></g></g><g transform="translate(58.339 381.279)" opacity="0.6"><g clip-path="url(#e)"><path d="M209.582,727.987a53.145,53.145,0,1,1-53.151-53.164,53.145,53.145,0,0,1,53.151,53.164" transform="translate(-103.291 -674.822)" fill="#2478ff"/></g></g><g transform="translate(202.941 267.241)" opacity="0.18"><g clip-path="url(#f)"><path d="M613.184,599.97a126.978,126.978,0,1,1,0-.008" transform="translate(-359.313 -472.988)" fill="#2478ff"/></g></g><g transform="translate(233.119 297.43)" opacity="0.3"><g clip-path="url(#g)"><path d="M606.259,623.212a96.788,96.788,0,1,1,0-.008" transform="translate(-412.745 -526.419)" fill="#2478ff"/></g></g><g transform="translate(263.207 327.529)" opacity="0.6"><g clip-path="url(#h)"><path d="M599.354,646.385a66.668,66.668,0,1,1-66.676-66.692,66.668,66.668,0,0,1,66.676,66.692" transform="translate(-466.017 -579.692)" fill="#2478ff"/></g></g><g transform="translate(170.051 183.399)" opacity="0.18"><g clip-path="url(#c)"><path d="M503.457,425.819a101.215,101.215,0,1,1,0-.009" transform="translate(-301.081 -324.596)" fill="#2478ff"/></g></g><g transform="translate(194.108 207.465)" opacity="0.3"><g clip-path="url(#j)"><path d="M497.935,444.347a77.131,77.131,0,1,1-77.14-77.158,77.131,77.131,0,0,1,77.14,77.158" transform="translate(-343.675 -367.189)" fill="#2478ff"/></g></g><g transform="translate(218.094 231.458)" opacity="0.6"><g clip-path="url(#k)"><path d="M492.432,462.82a53.145,53.145,0,1,1-53.151-53.164,53.145,53.145,0,0,1,53.151,53.164" transform="translate(-386.142 -409.656)" fill="#2478ff"/></g></g><g transform="translate(360.841 104.439)" opacity="0.18"><g clip-path="url(#l)"><path d="M957.042,343.984A159.081,159.081,0,1,1,797.961,184.846,159.11,159.11,0,0,1,957.042,343.984" transform="translate(-638.88 -184.845)" fill="#2478ff"/></g></g><g transform="translate(398.661 142.273)" opacity="0.3"><g clip-path="url(#m)"><path d="M948.362,373.112a122.283,122.283,0,1,1,0-.008" transform="translate(-705.842 -251.808)" fill="#2478ff"/></g></g><g transform="translate(436.37 179.995)" opacity="0.6"><g clip-path="url(#n)"><path d="M939.711,402.153a83.555,83.555,0,1,1-83.564-83.582,83.555,83.555,0,0,1,83.564,83.582" transform="translate(-772.606 -318.572)" fill="#2478ff"/></g></g><path d="M423.246,501.622a1,1,0,0,1-.132-.455.58.58,0,0,1,.1-.364.511.511,0,0,1,.364-.154,4.228,4.228,0,0,0,1.378-.313q.6-.258.6-.675V484.688a1.092,1.092,0,0,0-.3-.836,1.5,1.5,0,0,0-.7-.364,8,8,0,0,0-1.079-.147.72.72,0,0,1-.4-.118.564.564,0,0,1-.1-.4.993.993,0,0,1,.132-.455.39.39,0,0,1,.341-.251h8.741a.39.39,0,0,1,.341.251,1,1,0,0,1,.133.455c0,.344-.154.515-.46.515q-2.549,0-2.548,1.31l-.015,14.763a.91.91,0,0,0,.355.843,1.855,1.855,0,0,0,.968.216h3.857a1.737,1.737,0,0,0,1.246-.728,8.6,8.6,0,0,0,1.177-1.8,15.629,15.629,0,0,0,.9-2.194.569.569,0,0,1,.376-.341,1.618,1.618,0,0,1,.584-.118,1.031,1.031,0,0,1,.515.126.331.331,0,0,1,.195.348l-.779,6.115H423.585a.39.39,0,0,1-.341-.251" transform="translate(-184.078 -209.715)" fill="#fff"/><path d="M457.422,500.093a7.989,7.989,0,0,1,3.1-1.49,30.11,30.11,0,0,1,4.187-.717V495.63a2.224,2.224,0,0,0-.584-1.686,2.457,2.457,0,0,0-1.754-.557,3.489,3.489,0,0,0-1.517.237l-2.033,3.607a2.262,2.262,0,0,1-1.51-.487,1.687,1.687,0,0,1-.578-1.365,2.2,2.2,0,0,1,.94-1.761,6.536,6.536,0,0,1,2.388-1.135,11.148,11.148,0,0,1,2.913-.391,6.652,6.652,0,0,1,4.322,1.136,3.688,3.688,0,0,1,1.344,2.959v7.256a2.639,2.639,0,0,0,.154.954c.1.265.227.4.375.4a4.538,4.538,0,0,0,.7-.1c.2-.036.316-.056.334-.056a.348.348,0,0,1,.32.229,1.123,1.123,0,0,1,.112.494.3.3,0,0,1-.084.238,5.676,5.676,0,0,1-1.414.612,7.083,7.083,0,0,1-2.179.32,1.95,1.95,0,0,1-1.587-.5,2.046,2.046,0,0,1-.39-1.3v-.07a6.275,6.275,0,0,1-4.762,1.866,4.806,4.806,0,0,1-1.866-.39,3.774,3.774,0,0,1-1.566-1.219,3.667,3.667,0,0,1,.637-4.833m3.356,4.011a1.73,1.73,0,0,0,1.378.578,3.287,3.287,0,0,0,1.517-.328,3.571,3.571,0,0,0,1.044-.773v-4.624a12.843,12.843,0,0,0-2.332.536,3.247,3.247,0,0,0-1.517,1.092,3.41,3.41,0,0,0-.592,2.131,2.043,2.043,0,0,0,.5,1.386" transform="translate(-198.517 -214.057)" fill="#fff"/><path d="M483.063,500.268a.684.684,0,0,1-.126-.383.578.578,0,0,1,.1-.364.509.509,0,0,1,.364-.154,3.2,3.2,0,0,0,1.017-.237.589.589,0,0,0,.4-.557V481.9a1.789,1.789,0,0,0-.229-1,1.106,1.106,0,0,0-.557-.455,4.608,4.608,0,0,0-.828-.182c-.273-.046-.422-.075-.455-.084a.538.538,0,0,1-.251-.195.655.655,0,0,1-.084-.364.976.976,0,0,1,.091-.4.31.31,0,0,1,.244-.216q2.854-.167,5.416-.167a.38.38,0,0,1,.279.132.654.654,0,0,1,.139.425v14.36l5.137-5.042a.305.305,0,0,0,.154-.237q0-.264-.564-.439a5.189,5.189,0,0,0-1.191-.215.42.42,0,0,1-.34-.182.819.819,0,0,1-.091-.418.787.787,0,0,1,.132-.41.391.391,0,0,1,.341-.216h6.126a.388.388,0,0,1,.349.216.825.825,0,0,1,.125.411.728.728,0,0,1-.118.432.392.392,0,0,1-.34.167,3.449,3.449,0,0,0-1.336.3,5.618,5.618,0,0,0-1.282.745l-2.561,2.479q.752,1.476,1.838,3.3t2.088,3.315a3.846,3.846,0,0,0,.87.967,1.934,1.934,0,0,0,.94.425.62.62,0,0,1,.355.126.535.535,0,0,1,.1.389.684.684,0,0,1-.126.383.4.4,0,0,1-.348.188h-4.929a5.89,5.89,0,0,1-.961-1.463q-.614-1.156-1.547-3.095-.627-1.309-.988-2l-1.838,1.81v2.409a1.306,1.306,0,0,0,.194.78.91.91,0,0,0,.481.348,3.981,3.981,0,0,0,.745.126.728.728,0,0,1,.4.118.562.562,0,0,1,.1.4.673.673,0,0,1-.132.376.4.4,0,0,1-.341.195h-6.617a.4.4,0,0,1-.348-.188" transform="translate(-209.943 -208.298)" fill="#fff"/><path d="M516.115,504.709a7.525,7.525,0,0,1-1.859-5.474,7.247,7.247,0,0,1,.988-3.858,6.469,6.469,0,0,1,2.645-2.451,7.954,7.954,0,0,1,3.633-.836,6.528,6.528,0,0,1,4.323,1.22,5.772,5.772,0,0,1,1.828,3.544,14.942,14.942,0,0,1,.139,2.3l-9.412.015a7.707,7.707,0,0,0,.613,3.315,4.169,4.169,0,0,0,1.547,1.845,3.781,3.781,0,0,0,1.991.564,5.155,5.155,0,0,0,2.074-.383,3.526,3.526,0,0,0,1.463-1.191.959.959,0,0,0,.062-.091.267.267,0,0,1,.111-.1.253.253,0,0,1,.147-.015l.637.292c.1.037.152.091.152.167a.652.652,0,0,1-.083.237,5.112,5.112,0,0,1-2.068,2.061,6.8,6.8,0,0,1-3.335.752q-3.745,0-5.6-1.911m7.024-10.292a1.776,1.776,0,0,0-1.657-1.087,2.5,2.5,0,0,0-2.084,1.048,6.668,6.668,0,0,0-.947,3.524l5.248-.028a7.994,7.994,0,0,0-.557-3.454" transform="translate(-223.802 -214.055)" fill="#fff"/><path d="M499.7,698.991a10.27,10.27,0,0,1,.012-18.51,12.711,12.711,0,0,1,5.02-1.059,19.023,19.023,0,0,1,4.073.376,15.505,15.505,0,0,1,2.777.85l.307,4.317a.438.438,0,0,1-.237.391.85.85,0,0,1-.455.167l-.182.014a1.484,1.484,0,0,1-.546-.1.42.42,0,0,1-.292-.307,6.553,6.553,0,0,0-1.845-3.162,5.206,5.206,0,0,0-3.626-1.211,5.8,5.8,0,0,0-2.694.728,6.033,6.033,0,0,0-2.416,2.736,12.342,12.342,0,0,0-1.03,5.552,11.327,11.327,0,0,0,1.023,5.154,6.93,6.93,0,0,0,2.485,2.89,5.447,5.447,0,0,0,2.812.884q3.286,0,3.286-1.82V693.26a.968.968,0,0,0-.383-.836,2.041,2.041,0,0,0-.87-.364q-.487-.084-1.294-.153a.728.728,0,0,1-.4-.118.564.564,0,0,1-.1-.4,1,1,0,0,1,.132-.46.388.388,0,0,1,.34-.251h8.192a.39.39,0,0,1,.341.251,1,1,0,0,1,.132.46.578.578,0,0,1-.1.364.51.51,0,0,1-.364.154,3.787,3.787,0,0,0-1.183.273.657.657,0,0,0-.445.62l.041,5.1a3.6,3.6,0,0,1-1.294.871,12.629,12.629,0,0,1-2.715.885,16.813,16.813,0,0,1-3.689.376A12.314,12.314,0,0,1,499.7,699" transform="translate(-214.936 -295.544)" fill="#fff"/><path d="M534.863,702.762A7.526,7.526,0,0,1,533,697.293a7.248,7.248,0,0,1,.988-3.858,6.469,6.469,0,0,1,2.647-2.456,7.952,7.952,0,0,1,3.634-.836,6.529,6.529,0,0,1,4.323,1.219,5.775,5.775,0,0,1,1.831,3.544,14.949,14.949,0,0,1,.139,2.3l-9.412.015a7.706,7.706,0,0,0,.613,3.315,4.168,4.168,0,0,0,1.547,1.845,3.783,3.783,0,0,0,1.991.564,5.155,5.155,0,0,0,2.074-.383,3.525,3.525,0,0,0,1.463-1.192.957.957,0,0,0,.062-.091.266.266,0,0,1,.111-.1.254.254,0,0,1,.147-.014l.637.292c.1.037.153.091.153.167a.653.653,0,0,1-.083.237,5.113,5.113,0,0,1-2.068,2.061,6.8,6.8,0,0,1-3.335.752q-3.745,0-5.6-1.911m7.024-10.292a1.776,1.776,0,0,0-1.657-1.087,2.5,2.5,0,0,0-2.089,1.045,6.669,6.669,0,0,0-.947,3.524l5.249-.028a7.991,7.991,0,0,0-.557-3.454" transform="translate(-231.962 -300.207)" fill="#fff"/><path d="M562.352,698.146a7.986,7.986,0,0,1,3.1-1.49,30.071,30.071,0,0,1,4.187-.717v-2.256a2.223,2.223,0,0,0-.586-1.686,2.458,2.458,0,0,0-1.754-.557,3.5,3.5,0,0,0-1.518.237l-2.032,3.607a2.263,2.263,0,0,1-1.511-.487,1.689,1.689,0,0,1-.577-1.365,2.2,2.2,0,0,1,.94-1.762,6.518,6.518,0,0,1,2.387-1.135,11.146,11.146,0,0,1,2.913-.391,6.659,6.659,0,0,1,4.323,1.136,3.69,3.69,0,0,1,1.343,2.96V701.5a2.654,2.654,0,0,0,.153.954q.154.4.376.4a4.577,4.577,0,0,0,.7-.1c.2-.036.315-.056.334-.056a.348.348,0,0,1,.32.229,1.123,1.123,0,0,1,.111.494.294.294,0,0,1-.084.238,5.653,5.653,0,0,1-1.413.612,7.085,7.085,0,0,1-2.179.32,1.95,1.95,0,0,1-1.587-.5,2.049,2.049,0,0,1-.391-1.3v-.07a6.274,6.274,0,0,1-4.761,1.866,4.808,4.808,0,0,1-1.866-.39,3.778,3.778,0,0,1-1.566-1.219,3.666,3.666,0,0,1,.637-4.833m3.355,4.011a1.729,1.729,0,0,0,1.378.578,3.289,3.289,0,0,0,1.517-.328,3.588,3.588,0,0,0,1.045-.773V697.01a12.827,12.827,0,0,0-2.332.536,3.247,3.247,0,0,0-1.518,1.092,3.415,3.415,0,0,0-.592,2.132,2.043,2.043,0,0,0,.5,1.386" transform="translate(-244.182 -300.209)" fill="#fff"/><path d="M592.555,704.523a2.891,2.891,0,0,1-1.539-1.246,4.824,4.824,0,0,1-.57-2.556v-7.646a1.319,1.319,0,0,0-.23-.843,1.029,1.029,0,0,0-.546-.369,5.677,5.677,0,0,0-.8-.139.728.728,0,0,1-.4-.118.56.56,0,0,1-.1-.4.672.672,0,0,1,.132-.376.4.4,0,0,1,.341-.2h4.887a.45.45,0,0,1,.515.5v8.775a5.023,5.023,0,0,0,.364,2.093,1.284,1.284,0,0,0,1.267.78,5.079,5.079,0,0,0,2.082-.383,4.824,4.824,0,0,0,1.566-1.15V693.08a1.1,1.1,0,0,0-.292-.836,1.456,1.456,0,0,0-.689-.369,7.983,7.983,0,0,0-1.052-.147.728.728,0,0,1-.4-.118.566.566,0,0,1-.1-.4.672.672,0,0,1,.132-.376.4.4,0,0,1,.341-.2H602.8a.45.45,0,0,1,.515.5V701.45a3.068,3.068,0,0,0,.16,1.219.486.486,0,0,0,.439.313,1.922,1.922,0,0,0,.709-.111q.209-.1.376.223a1.364,1.364,0,0,1,.167.637c0,.13-.024.209-.069.237a5.058,5.058,0,0,1-1.316.578,7.524,7.524,0,0,1-2.248.286,1.5,1.5,0,0,1-1.421-.668,3.556,3.556,0,0,1-.432-1.657,4.241,4.241,0,0,1-1.141,1.128,7.013,7.013,0,0,1-1.729.885,5.736,5.736,0,0,1-1.911.341,7.164,7.164,0,0,1-2.332-.334" transform="translate(-256.057 -300.423)" fill="#fff"/><path d="M624.287,710.462a5.889,5.889,0,0,1-2.485-1.31,2.822,2.822,0,0,1-.94-2.145q0-2.16,2.576-2.967a2.913,2.913,0,0,1-1.427-1.051,2.73,2.73,0,0,1-.383-1.47,2.413,2.413,0,0,1,.752-1.72,4.172,4.172,0,0,1,1.8-1.092,4.046,4.046,0,0,1-1.9-1.665,4.635,4.635,0,0,1-.62-2.347,4.251,4.251,0,0,1,.675-2.375,4.432,4.432,0,0,1,2.019-1.623,8.166,8.166,0,0,1,3.265-.585,7.567,7.567,0,0,1,2.318.307,5.2,5.2,0,0,1,1.678.9,3.936,3.936,0,0,1,1.092-.9,2.633,2.633,0,0,1,1.3-.355,2.231,2.231,0,0,1,1.559.571,2.093,2.093,0,0,1,.626,1.629,2.242,2.242,0,0,1-.313,1.3,1.045,1.045,0,0,1-.91.446l-1.629-2.4a1.661,1.661,0,0,0-.578.111,1.755,1.755,0,0,0-.466.307,4.378,4.378,0,0,1,.819,2.619,4.681,4.681,0,0,1-.62,2.409,4.193,4.193,0,0,1-1.911,1.665,7.613,7.613,0,0,1-3.23.605,8.061,8.061,0,0,1-2.312-.265,1.623,1.623,0,0,0-.793,1.379.833.833,0,0,0,.571.819,4.409,4.409,0,0,0,1.629.237h3.634a5.436,5.436,0,0,1,3.593,1.092,3.961,3.961,0,0,1,1.294,3.252,4.091,4.091,0,0,1-.828,2.4,5.9,5.9,0,0,1-2.485,1.9,9.785,9.785,0,0,1-4,.738,12.493,12.493,0,0,1-3.368-.431m5.667-1.247a3.323,3.323,0,0,0,1.434-.933,2.175,2.175,0,0,0,.546-1.484,1.938,1.938,0,0,0-.626-1.5,2.73,2.73,0,0,0-1.894-.572h-2.827a10.179,10.179,0,0,1-1.092-.076,3.539,3.539,0,0,1-.954-.2,4.209,4.209,0,0,0-.334.85,4.484,4.484,0,0,0-.111,1.114,2.646,2.646,0,0,0,.6,1.776,3.45,3.45,0,0,0,1.5,1.024,5.453,5.453,0,0,0,1.845.32,5.74,5.74,0,0,0,1.921-.314m-.891-12.089a5.471,5.471,0,0,0,.488-2.486q0-3.277-2.143-3.277a1.629,1.629,0,0,0-1.6.9,5.607,5.607,0,0,0-.446,2.457,5.538,5.538,0,0,0,.455,2.451,1.638,1.638,0,0,0,1.608.91,1.7,1.7,0,0,0,1.638-.954" transform="translate(-270.198 -300.177)" fill="#fff"/><path d="M651.316,698.146a7.987,7.987,0,0,1,3.1-1.49,30.082,30.082,0,0,1,4.187-.717v-2.256a2.223,2.223,0,0,0-.585-1.686,2.457,2.457,0,0,0-1.754-.557,3.494,3.494,0,0,0-1.518.237l-2.032,3.607a2.263,2.263,0,0,1-1.511-.487,1.688,1.688,0,0,1-.577-1.365,2.2,2.2,0,0,1,.939-1.762,6.518,6.518,0,0,1,2.387-1.135,11.144,11.144,0,0,1,2.913-.391,6.658,6.658,0,0,1,4.323,1.136,3.689,3.689,0,0,1,1.343,2.96V701.5a2.654,2.654,0,0,0,.153.954q.153.4.376.4a4.56,4.56,0,0,0,.7-.1c.2-.036.315-.056.334-.056a.349.349,0,0,1,.321.229,1.124,1.124,0,0,1,.111.494.294.294,0,0,1-.084.237,5.654,5.654,0,0,1-1.413.613,7.081,7.081,0,0,1-2.179.32,1.95,1.95,0,0,1-1.587-.5,2.05,2.05,0,0,1-.39-1.3v-.07a6.274,6.274,0,0,1-4.761,1.866,4.807,4.807,0,0,1-1.866-.39,3.778,3.778,0,0,1-1.567-1.219,3.666,3.666,0,0,1,.637-4.833m3.355,4.011a1.729,1.729,0,0,0,1.378.578,3.289,3.289,0,0,0,1.517-.328,3.591,3.591,0,0,0,1.045-.773V697.01a12.825,12.825,0,0,0-2.332.536,3.247,3.247,0,0,0-1.518,1.092,3.415,3.415,0,0,0-.592,2.132,2.045,2.045,0,0,0,.5,1.386" transform="translate(-282.899 -300.209)" fill="#fff"/><path d="M816.416,463.282a.563.563,0,0,1,.1.4,1,1,0,0,1-.132.455.39.39,0,0,1-.341.251h-8.089a.39.39,0,0,1-.341-.251,1,1,0,0,1-.132-.455.579.579,0,0,1,.1-.364.509.509,0,0,1,.364-.153l.557-.028a5.6,5.6,0,0,0,.974-.076c.182-.042.279-.141.279-.3a.677.677,0,0,0-.043-.209l-1.729-4.889h-6.668l-1.712,4.889a.466.466,0,0,0-.041.182q0,.251.348.32a6.856,6.856,0,0,0,1.113.084l.585.028a.506.506,0,0,1,.364.153.58.58,0,0,1,.1.364,1,1,0,0,1-.132.455.392.392,0,0,1-.341.251H795.7a.389.389,0,0,1-.348-.209.96.96,0,0,1-.125-.5.564.564,0,0,1,.1-.4.728.728,0,0,1,.4-.118,3.333,3.333,0,0,1,.364-.015,4.163,4.163,0,0,0,.738-.077,1.341,1.341,0,0,0,.571-.292,1.666,1.666,0,0,0,.46-.689l6.571-17.772h2.923l6.474,17.772a1.521,1.521,0,0,0,.455.7,1.313,1.313,0,0,0,.6.286,5.258,5.258,0,0,0,.745.069,3.89,3.89,0,0,1,.39.015.728.728,0,0,1,.4.118m-11.528-15.453-3.174,8.636h5.862Z" transform="translate(-346.08 -193.276)" fill="#fff"/><path d="M838.449,469.11a15.08,15.08,0,0,1-1.469-.515,1.536,1.536,0,0,0-.571-.139.706.706,0,0,0-.327.063.978.978,0,0,0-.23.174,1.133,1.133,0,0,1-.25.174.783.783,0,0,1-.348.063.827.827,0,0,1-.467-.125.373.373,0,0,1-.188-.32q0-.419-.028-.933t-.042-.988q-.084-1.7-.084-2.145a.535.535,0,0,1,.188-.455.713.713,0,0,1,.455-.147.82.82,0,0,1,.383.084.377.377,0,0,1,.2.223q.126.455.273.864a10.984,10.984,0,0,0,.494,1.1,3.778,3.778,0,0,0,1.358,1.434,3.893,3.893,0,0,0,2.178.613,3.592,3.592,0,0,0,1.911-.446,1.421,1.421,0,0,0,.716-1.281,1.765,1.765,0,0,0-.418-1.177,4.006,4.006,0,0,0-1.239-.919,23.9,23.9,0,0,0-2.311-1A8.5,8.5,0,0,1,835.9,461.6a3.569,3.569,0,0,1-1.065-2.688,3.339,3.339,0,0,1,.752-2.132,4.905,4.905,0,0,1,2-1.47,6.988,6.988,0,0,1,2.715-.522,5.858,5.858,0,0,1,1.378.146,11.711,11.711,0,0,1,1.211.37,2.379,2.379,0,0,0,.6.167.4.4,0,0,0,.285-.077.508.508,0,0,0,.118-.195,1.1,1.1,0,0,1,.084-.188.546.546,0,0,1,.25-.216.922.922,0,0,1,.843.056.407.407,0,0,1,.2.355c0,.112-.005.218-.014.32q-.028.728-.027,1.547,0,.126.042,1c.018.3.027.492.027.584a.686.686,0,0,1-.174.515.628.628,0,0,1-.455.168.769.769,0,0,1-.348-.076.364.364,0,0,1-.195-.188,9.579,9.579,0,0,0-.675-1.476,3.323,3.323,0,0,0-3.014-1.616,2.761,2.761,0,0,0-1.538.4,1.377,1.377,0,0,0-.619,1.24,1.836,1.836,0,0,0,.772,1.5,9.328,9.328,0,0,0,2.43,1.22,17.454,17.454,0,0,1,2.478,1.128,5.3,5.3,0,0,1,1.677,1.463,3.4,3.4,0,0,1,.648,2.074,3.665,3.665,0,0,1-1.595,3.176,7.8,7.8,0,0,1-4.545,1.129,6.132,6.132,0,0,1-1.706-.209" transform="translate(-363.149 -197.801)" fill="#fff"/><path d="M857.831,463.022a.687.687,0,0,1-.126-.383.579.579,0,0,1,.1-.364.506.506,0,0,1,.364-.154q1.615-.167,1.615-.794V444.659a1.794,1.794,0,0,0-.229-1,1.11,1.11,0,0,0-.557-.455,4.611,4.611,0,0,0-.828-.182c-.273-.046-.422-.075-.46-.084a.54.54,0,0,1-.25-.195.652.652,0,0,1-.084-.364.968.968,0,0,1,.091-.4.309.309,0,0,1,.243-.216q2.854-.167,5.4-.167a.374.374,0,0,1,.265.125.7.7,0,0,1,.153.431v6.723l-.1,2.563a6.573,6.573,0,0,1,1.218-.933,10.585,10.585,0,0,1,2.034-.993,6.686,6.686,0,0,1,2.326-.431,4.8,4.8,0,0,1,2.9.794,3.439,3.439,0,0,1,1.078,2.939v8.051a1.059,1.059,0,0,0,.237.752,1.151,1.151,0,0,0,.557.334,5.941,5.941,0,0,0,.807.139,2.281,2.281,0,0,1,.306.027.586.586,0,0,1,.355.133.54.54,0,0,1,.1.382.678.678,0,0,1-.125.383.4.4,0,0,1-.348.188h-7.058a.4.4,0,0,1-.348-.188.686.686,0,0,1-.126-.383.645.645,0,0,1,.084-.369.471.471,0,0,1,.349-.147,3,3,0,0,0,.995-.258q.481-.216.48-.536v-8.51a2.185,2.185,0,0,0-.313-1.183q-.314-.5-1.4-.5a4.731,4.731,0,0,0-1.531.273,7.153,7.153,0,0,0-1.456.683,5.822,5.822,0,0,0-1.038.787v8a1.135,1.135,0,0,0,.237.78,1.069,1.069,0,0,0,.56.336,6.477,6.477,0,0,0,.814.132.728.728,0,0,1,.4.118.561.561,0,0,1,.1.4.671.671,0,0,1-.133.376.4.4,0,0,1-.34.195h-6.976a.4.4,0,0,1-.348-.188" transform="translate(-373.126 -192.097)" fill="#fff"/><path d="M893.556,465.491a3.177,3.177,0,0,1-1.079-2.716v-9.318H890.96a.306.306,0,0,1-.244-.195.824.824,0,0,1-.091-.376.849.849,0,0,1,.1-.431.371.371,0,0,1,.264-.195l1.2-.348a2.147,2.147,0,0,0,1.379-1.079,7.793,7.793,0,0,0,1-2.611q.111-.473.919-.473a1.429,1.429,0,0,1,.654.1.352.352,0,0,1,.182.327v3.858h3.425a.315.315,0,0,1,.244.153.58.58,0,0,1,.091.32,1.512,1.512,0,0,1-.127.655c-.083.177-.176.264-.278.264H896.32v8.176a7.619,7.619,0,0,0,.16,1.783,1.592,1.592,0,0,0,.455.864,1.175,1.175,0,0,0,.765.237,5.619,5.619,0,0,0,2.381-.637q.083,0,.216.188a1.927,1.927,0,0,1,.216.4.436.436,0,0,1,.043.306,3.719,3.719,0,0,1-1.024.71,8.909,8.909,0,0,1-1.511.606,5.046,5.046,0,0,1-1.434.244,4.968,4.968,0,0,1-3.028-.808" transform="translate(-387.598 -194.766)" fill="#fff"/><path d="M912.452,462.847a7.986,7.986,0,0,1,3.1-1.49,30.072,30.072,0,0,1,4.187-.717v-2.256a2.223,2.223,0,0,0-.586-1.686,2.457,2.457,0,0,0-1.754-.557,3.492,3.492,0,0,0-1.518.237l-2.032,3.607a2.263,2.263,0,0,1-1.511-.487,1.688,1.688,0,0,1-.577-1.365,2.2,2.2,0,0,1,.94-1.762,6.518,6.518,0,0,1,2.387-1.135,11.149,11.149,0,0,1,2.913-.39,6.658,6.658,0,0,1,4.323,1.136,3.688,3.688,0,0,1,1.343,2.96V466.2a2.654,2.654,0,0,0,.153.954q.153.4.376.4a4.573,4.573,0,0,0,.7-.1q.306-.055.334-.056a.349.349,0,0,1,.321.229,1.128,1.128,0,0,1,.111.494.3.3,0,0,1-.084.238,5.655,5.655,0,0,1-1.414.613,7.079,7.079,0,0,1-2.179.32,1.951,1.951,0,0,1-1.588-.5,2.051,2.051,0,0,1-.39-1.3v-.07a6.274,6.274,0,0,1-4.761,1.866,4.805,4.805,0,0,1-1.866-.39,3.776,3.776,0,0,1-1.566-1.219,3.666,3.666,0,0,1,.637-4.833m3.355,4.011a1.729,1.729,0,0,0,1.378.578,3.289,3.289,0,0,0,1.517-.328,3.587,3.587,0,0,0,1.045-.773v-4.624a12.821,12.821,0,0,0-2.332.536,3.247,3.247,0,0,0-1.518,1.092,3.413,3.413,0,0,0-.592,2.131,2.044,2.044,0,0,0,.5,1.386" transform="translate(-396.545 -197.855)" fill="#fff"/><path d="M939.124,462.918v-18.26a1.683,1.683,0,0,0-.237-.975,1.157,1.157,0,0,0-.557-.446,4.431,4.431,0,0,0-.836-.182q-.431-.07-.487-.084a.546.546,0,0,1-.251-.195.651.651,0,0,1-.083-.364.967.967,0,0,1,.091-.4.309.309,0,0,1,.244-.216q.974-.07,2.8-.133t2.687-.063a.348.348,0,0,1,.3.223.585.585,0,0,1,.076.4v6.42l-.1,2.354a4.228,4.228,0,0,1,1.911-1.406,6.667,6.667,0,0,1,2.513-.515,5.871,5.871,0,0,1,3.523,1,5.677,5.677,0,0,1,2,2.632,10.07,10.07,0,0,1,.631,3.633,8.465,8.465,0,0,1-.766,3.593,6.269,6.269,0,0,1-2.311,2.667,6.724,6.724,0,0,1-3.76,1.01,9.284,9.284,0,0,1-5.109-1.115q-.265.209-.807.669a2.857,2.857,0,0,1-.5.39,1.03,1.03,0,0,1-.487.1q-.487,0-.487-.738m9.237-2.222a8.96,8.96,0,0,0,.857-4.353,7.987,7.987,0,0,0-.843-4.032,3,3,0,0,0-2.805-1.427,3.613,3.613,0,0,0-1.539.376,2.56,2.56,0,0,0-1.162.988V460.9a2,2,0,0,0,.578.614,3.676,3.676,0,0,0,.94.5,3.038,3.038,0,0,0,1.058.195,3.075,3.075,0,0,0,2.917-1.512" transform="translate(-407.638 -192.096)" fill="#fff"/><path d="M973.815,469.229a2.888,2.888,0,0,1-1.539-1.246,4.823,4.823,0,0,1-.57-2.556v-7.646a1.319,1.319,0,0,0-.23-.843,1.029,1.029,0,0,0-.546-.369,5.689,5.689,0,0,0-.8-.139.728.728,0,0,1-.4-.118.56.56,0,0,1-.1-.4.673.673,0,0,1,.132-.376.4.4,0,0,1,.341-.2h4.887a.45.45,0,0,1,.515.5v8.774a5.02,5.02,0,0,0,.364,2.093,1.284,1.284,0,0,0,1.267.78,5.079,5.079,0,0,0,2.081-.383,4.824,4.824,0,0,0,1.568-1.158v-8.175a1.1,1.1,0,0,0-.293-.836,1.457,1.457,0,0,0-.689-.369,7.977,7.977,0,0,0-1.052-.147.728.728,0,0,1-.4-.118.564.564,0,0,1-.1-.4.674.674,0,0,1,.132-.376.4.4,0,0,1,.341-.2h5.333a.45.45,0,0,1,.515.5v10.306a3.07,3.07,0,0,0,.16,1.219.486.486,0,0,0,.439.314,1.924,1.924,0,0,0,.71-.111q.209-.1.376.223a1.366,1.366,0,0,1,.168.637c0,.13-.023.209-.069.237a5.061,5.061,0,0,1-1.316.578,7.525,7.525,0,0,1-2.248.286,1.5,1.5,0,0,1-1.421-.668,3.555,3.555,0,0,1-.432-1.658,4.237,4.237,0,0,1-1.141,1.128,7,7,0,0,1-1.729.885,5.728,5.728,0,0,1-1.911.341,7.164,7.164,0,0,1-2.332-.335" transform="translate(-421.98 -198.069)" fill="#fff"/><path d="M1001.708,463.023a.638.638,0,0,1-.139-.383.585.585,0,0,1,.1-.369.463.463,0,0,1,.355-.146,4.051,4.051,0,0,0,1.135-.244q.48-.188.481-.546l.014-16.672a1.573,1.573,0,0,0-.265-.982,1.294,1.294,0,0,0-.626-.455,4.992,4.992,0,0,0-.9-.188c-.3-.046-.469-.075-.515-.084a.54.54,0,0,1-.25-.195.651.651,0,0,1-.083-.364.958.958,0,0,1,.091-.4.309.309,0,0,1,.243-.216q2.785-.168,5.583-.168a.379.379,0,0,1,.279.132.652.652,0,0,1,.138.425v18.705a1.075,1.075,0,0,0,.258.78,1.183,1.183,0,0,0,.592.341,7.4,7.4,0,0,0,.849.132.683.683,0,0,1,.4.126.546.546,0,0,1,.1.376.683.683,0,0,1-.132.4.416.416,0,0,1-.355.188h-7a.418.418,0,0,1-.348-.188" transform="translate(-435.638 -192.098)" fill="#fff"/><path d="M1020.99,462.847a7.987,7.987,0,0,1,3.1-1.49,30.072,30.072,0,0,1,4.187-.717v-2.256a2.223,2.223,0,0,0-.585-1.686,2.458,2.458,0,0,0-1.754-.557,3.49,3.49,0,0,0-1.518.237l-2.032,3.607a2.263,2.263,0,0,1-1.511-.487,1.689,1.689,0,0,1-.577-1.365,2.2,2.2,0,0,1,.94-1.762,6.521,6.521,0,0,1,2.388-1.135,11.144,11.144,0,0,1,2.912-.391,6.657,6.657,0,0,1,4.323,1.136,3.689,3.689,0,0,1,1.343,2.96V466.2a2.654,2.654,0,0,0,.153.954q.154.4.376.4a4.565,4.565,0,0,0,.7-.1q.306-.055.334-.056a.348.348,0,0,1,.321.229,1.124,1.124,0,0,1,.111.494.3.3,0,0,1-.084.238,5.653,5.653,0,0,1-1.413.613,7.08,7.08,0,0,1-2.179.32,1.95,1.95,0,0,1-1.587-.5,2.052,2.052,0,0,1-.391-1.3v-.07a6.274,6.274,0,0,1-4.761,1.866,4.805,4.805,0,0,1-1.866-.389,3.779,3.779,0,0,1-1.567-1.219,3.666,3.666,0,0,1,.637-4.833m3.355,4.011a1.729,1.729,0,0,0,1.378.578,3.289,3.289,0,0,0,1.517-.328,3.584,3.584,0,0,0,1.045-.773v-4.624a12.815,12.815,0,0,0-2.332.536,3.246,3.246,0,0,0-1.518,1.092,3.414,3.414,0,0,0-.592,2.131,2.045,2.045,0,0,0,.5,1.386" transform="translate(-443.781 -197.855)" fill="#fff"/><path d="M83.318,766.148a8.52,8.52,0,0,1-3.933-3.277,10.656,10.656,0,0,1-1.517-5.983,10.142,10.142,0,0,1,1.574-5.8,9.6,9.6,0,0,1,3.968-3.441,11.5,11.5,0,0,1,4.873-1.107,14.468,14.468,0,0,1,5.764.975,3.742,3.742,0,0,0,.752.251l.264,4.429q.028.208-.285.383a1.152,1.152,0,0,1-.537.174l-.182.014a1.679,1.679,0,0,1-.584-.1.389.389,0,0,1-.292-.307,6.812,6.812,0,0,0-1.587-3.259,4.347,4.347,0,0,0-3.341-1.225,5.643,5.643,0,0,0-2.66.637,5.054,5.054,0,0,0-2.067,2.625,15.117,15.117,0,0,0-.856,5.752,13.25,13.25,0,0,0,.94,5.552,5.591,5.591,0,0,0,2.248,2.682,5.675,5.675,0,0,0,2.7.7,4.311,4.311,0,0,0,3.314-1.33,6.657,6.657,0,0,0,1.629-3.377.546.546,0,0,1,.626-.46,1.682,1.682,0,0,1,.592.132c.227.091.341.2.341.341l-.4,4.1q-.028.222-.9.7a10.262,10.262,0,0,1-2.263.85,11.3,11.3,0,0,1-2.913.369,13.737,13.737,0,0,1-5.256-.989" transform="translate(-33.887 -324.739)" fill="#fff"/><path d="M116.266,771.64a2.887,2.887,0,0,1-1.538-1.246,4.815,4.815,0,0,1-.571-2.556v-7.646a1.322,1.322,0,0,0-.23-.842,1.029,1.029,0,0,0-.546-.369,5.689,5.689,0,0,0-.8-.139.721.721,0,0,1-.4-.118.559.559,0,0,1-.1-.4.673.673,0,0,1,.132-.376.4.4,0,0,1,.341-.2h4.887a.45.45,0,0,1,.515.5v8.774a5.021,5.021,0,0,0,.364,2.093,1.284,1.284,0,0,0,1.267.78,5.08,5.08,0,0,0,2.082-.383,4.808,4.808,0,0,0,1.566-1.149V760.2a1.1,1.1,0,0,0-.292-.836,1.451,1.451,0,0,0-.689-.369,7.923,7.923,0,0,0-1.051-.147.727.727,0,0,1-.4-.118.566.566,0,0,1-.1-.4.672.672,0,0,1,.132-.376.4.4,0,0,1,.341-.2h5.332a.45.45,0,0,1,.515.5v10.306a3.062,3.062,0,0,0,.16,1.219.486.486,0,0,0,.439.314,1.928,1.928,0,0,0,.71-.111q.208-.1.376.223a1.37,1.37,0,0,1,.167.637c0,.13-.023.209-.069.237a5.07,5.07,0,0,1-1.316.578,7.529,7.529,0,0,1-2.248.285,1.5,1.5,0,0,1-1.42-.668,3.55,3.55,0,0,1-.431-1.657,4.25,4.25,0,0,1-1.142,1.128,7.011,7.011,0,0,1-1.729.885,5.72,5.72,0,0,1-1.911.341,7.166,7.166,0,0,1-2.332-.334" transform="translate(-48.778 -329.619)" fill="#fff"/><path d="M145.495,777.567a2.843,2.843,0,0,1-1.059-.779,1.658,1.658,0,0,1-.411-1.079,1.774,1.774,0,0,1,.425-1.254,1.343,1.343,0,0,1,1.023-.455l1.615,1.741a1.955,1.955,0,0,0,1.149-.39,4.222,4.222,0,0,0,1-1.141,20.32,20.32,0,0,0,1.128-2.117l-5.387-12.034a1.845,1.845,0,0,0-1.7-1.211.729.729,0,0,1-.4-.118.562.562,0,0,1-.1-.4.684.684,0,0,1,.125-.383.385.385,0,0,1,.334-.188h7.184a.4.4,0,0,1,.348.188.684.684,0,0,1,.126.383.579.579,0,0,1-.1.364.507.507,0,0,1-.364.154,6.937,6.937,0,0,0-1.107.2q-.4.118-.4.455l3.286,8.566,2.937-8.566q0-.335-.425-.455a7.885,7.885,0,0,0-1.162-.2.509.509,0,0,1-.364-.154.579.579,0,0,1-.1-.364.683.683,0,0,1,.125-.383.4.4,0,0,1,.349-.188h4.845a.4.4,0,0,1,.341.195.675.675,0,0,1,.133.376.563.563,0,0,1-.1.4.728.728,0,0,1-.4.118,1.845,1.845,0,0,0-.891.292,2.447,2.447,0,0,0-.668.919l-4,10.14q-.139.349-.182.431-.961,2.4-1.678,3.83a8.538,8.538,0,0,1-1.754,2.417,3.4,3.4,0,0,1-2.415.982,3.222,3.222,0,0,1-1.316-.286" transform="translate(-62.134 -329.619)" fill="#fff"/><path d="M174.238,765.263a7.987,7.987,0,0,1,3.1-1.49,30.1,30.1,0,0,1,4.187-.717V760.8a2.224,2.224,0,0,0-.584-1.686,2.457,2.457,0,0,0-1.754-.557,3.487,3.487,0,0,0-1.517.237l-2.032,3.607a2.262,2.262,0,0,1-1.51-.487,1.688,1.688,0,0,1-.578-1.365,2.2,2.2,0,0,1,.94-1.761,6.536,6.536,0,0,1,2.388-1.135,11.144,11.144,0,0,1,2.913-.391,6.656,6.656,0,0,1,4.323,1.136,3.689,3.689,0,0,1,1.343,2.96v7.256a2.653,2.653,0,0,0,.153.955q.153.4.376.4a4.562,4.562,0,0,0,.7-.1c.2-.036.316-.055.334-.055a.349.349,0,0,1,.32.229,1.124,1.124,0,0,1,.111.494.293.293,0,0,1-.084.238,5.665,5.665,0,0,1-1.414.612,7.081,7.081,0,0,1-2.179.32,1.95,1.95,0,0,1-1.587-.5,2.047,2.047,0,0,1-.39-1.3v-.07a6.275,6.275,0,0,1-4.762,1.866,4.8,4.8,0,0,1-1.866-.39A3.773,3.773,0,0,1,173.6,770.1a3.667,3.667,0,0,1,.637-4.833m3.356,4.011a1.729,1.729,0,0,0,1.378.578,3.29,3.29,0,0,0,1.517-.328,3.572,3.572,0,0,0,1.044-.773v-4.624a12.842,12.842,0,0,0-2.332.536,3.246,3.246,0,0,0-1.517,1.092,3.41,3.41,0,0,0-.592,2.131,2.044,2.044,0,0,0,.5,1.386" transform="translate(-75.277 -329.405)" fill="#fff"/><path d="M199.98,765.438a.682.682,0,0,1-.126-.383.574.574,0,0,1,.1-.364.507.507,0,0,1,.364-.154q1.615-.166,1.615-.794V747.074a1.789,1.789,0,0,0-.23-1,1.105,1.105,0,0,0-.556-.455,4.6,4.6,0,0,0-.828-.182c-.273-.046-.422-.075-.46-.084a.54.54,0,0,1-.25-.195.655.655,0,0,1-.083-.364.967.967,0,0,1,.091-.4c.06-.134.141-.207.243-.216q2.854-.167,5.4-.167a.371.371,0,0,1,.264.125.7.7,0,0,1,.154.431v6.714l-.1,2.563a6.581,6.581,0,0,1,1.218-.933,10.571,10.571,0,0,1,2.04-.989,6.684,6.684,0,0,1,2.326-.431,4.8,4.8,0,0,1,2.9.794,3.438,3.438,0,0,1,1.079,2.938v8.051a1.058,1.058,0,0,0,.237.752,1.151,1.151,0,0,0,.557.334,5.948,5.948,0,0,0,.807.139,2.262,2.262,0,0,1,.306.027.586.586,0,0,1,.355.133.541.541,0,0,1,.1.382.687.687,0,0,1-.126.383.4.4,0,0,1-.349.188h-7.059a.4.4,0,0,1-.349-.188.683.683,0,0,1-.126-.383.65.65,0,0,1,.084-.369.472.472,0,0,1,.348-.147,3,3,0,0,0,1-.258q.481-.215.48-.536v-8.51a2.184,2.184,0,0,0-.313-1.183q-.313-.5-1.4-.5a4.732,4.732,0,0,0-1.532.273,7.14,7.14,0,0,0-1.456.683,5.8,5.8,0,0,0-1.037.787v8a1.136,1.136,0,0,0,.236.78,1.071,1.071,0,0,0,.546.341,6.494,6.494,0,0,0,.815.132.729.729,0,0,1,.4.118.561.561,0,0,1,.1.4.67.67,0,0,1-.133.376.4.4,0,0,1-.341.195h-6.976a.4.4,0,0,1-.348-.188" transform="translate(-86.831 -323.646)" fill="#fff"/><path d="M234.577,760.646a6.241,6.241,0,0,1,2.66-2.514,8.817,8.817,0,0,1,4.031-.87,8.554,8.554,0,0,1,3.988.87,6.052,6.052,0,0,1,2.576,2.508,7.973,7.973,0,0,1,.9,3.892,7.828,7.828,0,0,1-.919,3.894,6.091,6.091,0,0,1-2.624,2.5,9.754,9.754,0,0,1-8.026,0,6.055,6.055,0,0,1-2.61-2.5,7.874,7.874,0,0,1-.91-3.894,7.693,7.693,0,0,1,.94-3.885m3.62,7.145a3.867,3.867,0,0,0,1.023,1.985,2.77,2.77,0,0,0,1.991.689,2.7,2.7,0,0,0,1.963-.689,3.841,3.841,0,0,0,.995-1.978,15.484,15.484,0,0,0,.286-3.267,14.788,14.788,0,0,0-.3-3.259,3.865,3.865,0,0,0-1.023-1.984,3.169,3.169,0,0,0-3.948,0,3.807,3.807,0,0,0-1,1.978,15.491,15.491,0,0,0-.285,3.266,14.787,14.787,0,0,0,.3,3.259" transform="translate(-101.678 -329.404)" fill="#fff"/><path d="M266.84,777.58a5.9,5.9,0,0,1-2.485-1.309,2.822,2.822,0,0,1-.94-2.145q0-2.159,2.576-2.967a2.918,2.918,0,0,1-1.427-1.051,2.74,2.74,0,0,1-.383-1.47,2.415,2.415,0,0,1,.752-1.719,4.174,4.174,0,0,1,1.8-1.092,4.042,4.042,0,0,1-1.9-1.665,4.628,4.628,0,0,1-.62-2.346,4.255,4.255,0,0,1,.675-2.375,4.43,4.43,0,0,1,2.019-1.623,8.163,8.163,0,0,1,3.265-.585,7.568,7.568,0,0,1,2.318.307,5.2,5.2,0,0,1,1.677.9,3.941,3.941,0,0,1,1.092-.9,2.633,2.633,0,0,1,1.3-.355,2.231,2.231,0,0,1,1.559.571,2.094,2.094,0,0,1,.626,1.629,2.237,2.237,0,0,1-.313,1.3,1.044,1.044,0,0,1-.91.446l-1.629-2.4a1.647,1.647,0,0,0-.578.111,1.744,1.744,0,0,0-.467.306,4.373,4.373,0,0,1,.819,2.619,4.681,4.681,0,0,1-.619,2.409,4.2,4.2,0,0,1-1.911,1.665,7.612,7.612,0,0,1-3.23.605,8.053,8.053,0,0,1-2.311-.265,1.622,1.622,0,0,0-.794,1.379.834.834,0,0,0,.571.819,4.418,4.418,0,0,0,1.629.237h3.633a5.436,5.436,0,0,1,3.592,1.092,3.962,3.962,0,0,1,1.294,3.252,4.089,4.089,0,0,1-.828,2.4,5.906,5.906,0,0,1-2.485,1.9,9.779,9.779,0,0,1-4,.738,12.5,12.5,0,0,1-3.368-.431m5.667-1.248a3.326,3.326,0,0,0,1.434-.932,2.176,2.176,0,0,0,.546-1.484,1.94,1.94,0,0,0-.626-1.5,2.731,2.731,0,0,0-1.894-.571h-2.834a10.181,10.181,0,0,1-1.092-.076,3.546,3.546,0,0,1-.954-.2,4.251,4.251,0,0,0-.334.85,4.462,4.462,0,0,0-.111,1.114,2.639,2.639,0,0,0,.6,1.776,3.458,3.458,0,0,0,1.5,1.024,5.459,5.459,0,0,0,1.845.319,5.719,5.719,0,0,0,1.921-.313m-.891-12.089a5.473,5.473,0,0,0,.487-2.487q0-3.277-2.144-3.277a1.629,1.629,0,0,0-1.6.9,5.618,5.618,0,0,0-.445,2.458,5.537,5.537,0,0,0,.455,2.451,1.638,1.638,0,0,0,1.608.91,1.7,1.7,0,0,0,1.643-.954" transform="translate(-114.638 -329.373)" fill="#fff"/><path d="M293.869,765.263a7.989,7.989,0,0,1,3.1-1.49,30.1,30.1,0,0,1,4.187-.717V760.8a2.224,2.224,0,0,0-.584-1.686,2.457,2.457,0,0,0-1.754-.557,3.487,3.487,0,0,0-1.517.237l-2.032,3.607a2.262,2.262,0,0,1-1.51-.487,1.689,1.689,0,0,1-.578-1.365,2.2,2.2,0,0,1,.94-1.761,6.536,6.536,0,0,1,2.388-1.135,11.144,11.144,0,0,1,2.913-.391,6.656,6.656,0,0,1,4.323,1.136,3.69,3.69,0,0,1,1.343,2.96v7.256a2.654,2.654,0,0,0,.153.955q.153.4.376.4a4.574,4.574,0,0,0,.7-.1c.2-.036.316-.055.334-.055a.349.349,0,0,1,.32.229,1.124,1.124,0,0,1,.111.494.293.293,0,0,1-.084.238,5.665,5.665,0,0,1-1.414.613,7.081,7.081,0,0,1-2.179.32,1.951,1.951,0,0,1-1.587-.5,2.047,2.047,0,0,1-.389-1.3v-.07a6.275,6.275,0,0,1-4.762,1.866,4.8,4.8,0,0,1-1.866-.39,3.772,3.772,0,0,1-1.566-1.219,3.667,3.667,0,0,1,.637-4.833m3.356,4.011a1.729,1.729,0,0,0,1.378.578,3.29,3.29,0,0,0,1.517-.328,3.571,3.571,0,0,0,1.044-.773v-4.624a12.842,12.842,0,0,0-2.332.536,3.246,3.246,0,0,0-1.517,1.092,3.41,3.41,0,0,0-.592,2.131,2.043,2.043,0,0,0,.5,1.386" transform="translate(-127.339 -329.405)" fill="#fff"/></g><g transform="translate(260.373)"><g transform="translate(0)" clip-path="url(#o)"><rect width="125.251" height="46.026" transform="matrix(0.987, -0.16, 0.16, 0.987, -4.226, 0.687)" fill="url(#p)"/></g></g><g clip-path="url(#a)"><path d="M448.186,86.648h65.7v2.113h-65.7Zm96.887,0h69.472v2.113H545.073Z" transform="translate(-195.049 -37.692)" fill="#002469" fill-rule="evenodd"/><path d="M422.055,53.968a9.1,9.1,0,0,1,2.519-6.65,9.514,9.514,0,0,1,12.995-.01,9.092,9.092,0,0,1,2.51,6.659,9.133,9.133,0,0,1-2.51,6.67,9.45,9.45,0,0,1-12.976-.019,9.159,9.159,0,0,1-2.539-6.651m26.533-1.687v6.805a3.328,3.328,0,0,0,.455,1.939,2.484,2.484,0,0,0,1.541.91v.832H440.195v-.834a2.518,2.518,0,0,0,1.56-.921,3.314,3.314,0,0,0,.465-1.929V48.976a3.823,3.823,0,0,0-.465-2.1,2.2,2.2,0,0,0-1.56-.853v-.834h8.111l.068,2.666a7.409,7.409,0,0,1,1.919-2.385,3.672,3.672,0,0,1,2.267-.756,2.509,2.509,0,0,1,1.948.815,3.427,3.427,0,0,1,.077,4.169,2.324,2.324,0,0,1-1.82.756,3.388,3.388,0,0,1-1.82-.63,3.491,3.491,0,0,0-1.279-.637.855.855,0,0,0-.833.659,7.951,7.951,0,0,0-.242,2.443m9.895-5.2h-1.948V45.641a10.277,10.277,0,0,0,4.109-2.462,11.035,11.035,0,0,0,2.626-4.207h1.59v6.214h3.324v1.9h-3.324v10.6a4.8,4.8,0,0,0,.339,2.064,1.137,1.137,0,0,0,1.075.65,1.686,1.686,0,0,0,.824-.273,4.154,4.154,0,0,0,.91-.756l.9.756a9.568,9.568,0,0,1-2.731,2.307,6.255,6.255,0,0,1-2.985.746,4.523,4.523,0,0,1-3.537-1.309,5.675,5.675,0,0,1-1.172-3.927Zm10.753,15.677v-.834a2.519,2.519,0,0,0,1.56-.921,3.31,3.31,0,0,0,.475-1.929V42.113a3.7,3.7,0,0,0-.475-2.084,2.2,2.2,0,0,0-1.56-.853v-.853h8.392v8.87a12.534,12.534,0,0,1,2.907-1.9,6.844,6.844,0,0,1,2.781-.621A4.3,4.3,0,0,1,487,46.289a8.181,8.181,0,0,1,1.2,4.915v7.407A4.664,4.664,0,0,0,488.657,61a2.24,2.24,0,0,0,1.57.94v.831h-9.835v-.834a1.665,1.665,0,0,0,1.114-.892,5.512,5.512,0,0,0,.329-2.269V50.624a5.474,5.474,0,0,0-.339-2.395,1.37,1.37,0,0,0-1.27-.563,2.409,2.409,0,0,0-1.221.4,6.439,6.439,0,0,0-1.376,1.154v9.734a4.793,4.793,0,0,0,.358,2.153,1.739,1.739,0,0,0,1.241.834v.829Zm-74.492-19.2a4.83,4.83,0,0,0-.882-3.286,4.08,4.08,0,0,0-2.985-1.067v-1.1h12.55L417.79,55.6V43.562a4.915,4.915,0,0,0-.863-3.277,4.252,4.252,0,0,0-3-1.057v-1.12H423.7v1.1a4.06,4.06,0,0,0-2.985,1.067,4.824,4.824,0,0,0-.882,3.286V68.2h-3.4L396.792,44.371v18.37a4.871,4.871,0,0,0,.872,3.286,4.174,4.174,0,0,0,2.994,1.077V68.2H390.88V67.1a4.039,4.039,0,0,0,2.985-1.057,4.891,4.891,0,0,0,.882-3.3ZM428.787,54a24.968,24.968,0,0,0,.5,6.291c.34,1.077.931,1.609,1.774,1.609.863,0,1.464-.552,1.8-1.638A24.526,24.526,0,0,0,433.381,54a24.323,24.323,0,0,0-.513-6.252q-.509-1.629-1.8-1.629c-.843,0-1.434.513-1.774,1.547a25.024,25.024,0,0,0-.5,6.329" transform="translate(-170.11 -16.578)" fill="#bf1238" fill-rule="evenodd"/><path d="M619.83,53.052a9.107,9.107,0,0,1,2.519-6.65,9.515,9.515,0,0,1,12.995-.01,9.132,9.132,0,0,1,2.51,6.661,9.169,9.169,0,0,1-2.51,6.669,9.45,9.45,0,0,1-12.975-.02,9.118,9.118,0,0,1-2.539-6.65m6.735.038a24.951,24.951,0,0,0,.5,6.291c.33,1.077.921,1.61,1.773,1.61s1.464-.552,1.8-1.638a24.491,24.491,0,0,0,.513-6.262,24.3,24.3,0,0,0-.513-6.252q-.508-1.629-1.8-1.629-1.278,0-1.773,1.547a25.016,25.016,0,0,0-.5,6.33m19.8-1.729v6.8a3.326,3.326,0,0,0,.455,1.939,2.535,2.535,0,0,0,1.541.91v.834h-10.4v-.834a2.51,2.51,0,0,0,1.56-.921,3.259,3.259,0,0,0,.475-1.93v-10.1a3.73,3.73,0,0,0-.475-2.1,2.158,2.158,0,0,0-1.56-.854v-.834h8.112l.077,2.666a7.383,7.383,0,0,1,1.92-2.385,3.641,3.641,0,0,1,2.267-.756,2.508,2.508,0,0,1,1.948.815,3.443,3.443,0,0,1,.068,4.168,2.314,2.314,0,0,1-1.82.756,3.44,3.44,0,0,1-1.82-.63,3.4,3.4,0,0,0-1.274-.637.847.847,0,0,0-.833.659,7.974,7.974,0,0,0-.242,2.443m13.3-.329h4.021a14.956,14.956,0,0,0-.546-4.294c-.339-.979-.819-1.464-1.456-1.464s-1.124.5-1.473,1.494a13.38,13.38,0,0,0-.552,4.265m9.777,5.487a9.863,9.863,0,0,1-3.14,4.285,7.613,7.613,0,0,1-4.651,1.483,7.856,7.856,0,0,1-6.066-2.549,9.5,9.5,0,0,1-2.335-6.65,10.978,10.978,0,0,1,.416-3.025,9.534,9.534,0,0,1,1.221-2.6,8.323,8.323,0,0,1,2.965-2.666,7.942,7.942,0,0,1,3.837-.969,6.827,6.827,0,0,1,5.447,2.268,9.688,9.688,0,0,1,2.073,6.34l-9.506.019A7.838,7.838,0,0,0,661.1,57a4,4,0,0,0,3.333,1.687,3.589,3.589,0,0,0,2.1-.688,6.439,6.439,0,0,0,1.774-2.016ZM572.424,68.348V57.394h1.124a10.123,10.123,0,0,0,3.6,6.505,10.506,10.506,0,0,0,7.008,2.589,6.686,6.686,0,0,0,4.128-1.183,3.627,3.627,0,0,0,1.57-3.035q0-2.864-7.443-6.088l-.067-.028q-.455-.19-1.365-.582-5.132-2.167-6.851-4.488a8.2,8.2,0,0,1-1.153-2.22,8.047,8.047,0,0,1-.388-2.482,8.687,8.687,0,0,1,3.159-6.874,12.046,12.046,0,0,1,8.1-2.7,16.138,16.138,0,0,1,5.591,1.066,27.735,27.735,0,0,0,3.168,1.057,1.15,1.15,0,0,0,1.047-.446,3.579,3.579,0,0,0,.4-1.638h1.192v9.674h-1.019a9.036,9.036,0,0,0-3.323-5.6,9.72,9.72,0,0,0-6.289-2.162,5.917,5.917,0,0,0-3.634,1.028,3.233,3.233,0,0,0-1.365,2.705q0,2.429,5.756,4.809l.484.194c2.752,1.154,4.681,2.046,5.776,2.657a9.7,9.7,0,0,1,2.471,1.831,9.416,9.416,0,0,1,1.9,2.976,9.3,9.3,0,0,1,.637,3.451,9.07,9.07,0,0,1-3.227,7.212,12.407,12.407,0,0,1-8.412,2.782,19.81,19.81,0,0,1-6.1-1.018c-2.122-.679-3.256-1.028-3.43-1.028a1.654,1.654,0,0,0-1.25.533,2.35,2.35,0,0,0-.581,1.464Zm26.223-6.5V61.02a2.568,2.568,0,0,0,1.56-.921,3.341,3.341,0,0,0,.465-1.93V41.2a3.712,3.712,0,0,0-.465-2.084,2.2,2.2,0,0,0-1.56-.853V37.4h8.392v8.87a12.3,12.3,0,0,1,2.907-1.9,6.854,6.854,0,0,1,2.781-.62,4.306,4.306,0,0,1,3.683,1.618,8.248,8.248,0,0,1,1.192,4.915v7.406a4.652,4.652,0,0,0,.465,2.385,2.22,2.22,0,0,0,1.57.941v.834h-9.845V61.02a1.662,1.662,0,0,0,1.124-.893,5.514,5.514,0,0,0,.329-2.268V49.707a5.277,5.277,0,0,0-.349-2.394,1.341,1.341,0,0,0-1.26-.562,2.473,2.473,0,0,0-1.232.4,6.648,6.648,0,0,0-1.365,1.154v9.732a4.641,4.641,0,0,0,.359,2.152,1.717,1.717,0,0,0,1.231.835v.834Z" transform="translate(-249.117 -16.009)" fill="#002469" fill-rule="evenodd"/><path d="M405.765,98.417H390.88v4.421h.928a9.774,9.774,0,0,1,1.067-2.143c.493-.765.949-1.173,1.365-1.241.223-.029.5-.048.843-.078s.63-.029.872-.029h.5v12.105a1.683,1.683,0,0,1-.135.689,1.03,1.03,0,0,1-.562.465,3.493,3.493,0,0,1-.755.146l-.872.091v.931h8.374v-.931c-.242-.029-.533-.076-.882-.146a3.843,3.843,0,0,1-.755-.2.935.935,0,0,1-.553-.465,1.506,1.506,0,0,1-.136-.689V99.347h.5c.243,0,.533.01.873.029s.62.048.843.078c.417.067.873.474,1.357,1.241a9.434,9.434,0,0,1,1.076,2.143h.93Z" transform="translate(-170.11 -42.811)" fill="#bf1238" fill-rule="evenodd"/><path d="M433.581,98.417H419.859v.93c.175.02.446.068.795.146a3.842,3.842,0,0,1,.814.233,1.078,1.078,0,0,1,.592.455,1.349,1.349,0,0,1,.126.631v10.7a1.365,1.365,0,0,1-.146.669,1.1,1.1,0,0,1-.572.436,3.3,3.3,0,0,1-.755.146c-.358.048-.649.067-.853.091v.931h14.594l.291-4.886h-.929a12.137,12.137,0,0,1-.863,1.7,9.74,9.74,0,0,1-1.183,1.687,1.315,1.315,0,0,1-.6.329,7.347,7.347,0,0,1-.854.166,8.8,8.8,0,0,1-.949.067c-.359.01-.669.01-.921.01a9.331,9.331,0,0,1-1.3-.067,1.557,1.557,0,0,1-.746-.273,1.067,1.067,0,0,1-.388-.621,4.253,4.253,0,0,1-.107-1.109v-4.449h1.589a4.054,4.054,0,0,1,1.143.146,1.925,1.925,0,0,1,.843.546,3.258,3.258,0,0,1,.513.95,5.4,5.4,0,0,1,.329,1.153h.93v-6.514h-.93a5.968,5.968,0,0,1-.329,1.153,2.852,2.852,0,0,1-.513.921,2.139,2.139,0,0,1-.892.572,3.849,3.849,0,0,1-1.092.146H425.9V99.347h2.248c.252,0,.573.01.959.02a4.238,4.238,0,0,1,.91.1,2.931,2.931,0,0,1,1.54,1.086,5.945,5.945,0,0,1,1.086,1.82h.93Z" transform="translate(-182.721 -42.811)" fill="#bf1238" fill-rule="evenodd"/><path d="M459.945,113.54a7.282,7.282,0,0,0,1.928-.941,6.66,6.66,0,0,0,1.405-1.309,9.86,9.86,0,0,0,1.086-1.729l-.931-.572a8.555,8.555,0,0,1-2.21,2.8,4.425,4.425,0,0,1-2.762.921,4.5,4.5,0,0,1-1.938-.4A3.983,3.983,0,0,1,455,111.081a6.676,6.676,0,0,1-.969-2.143,12.223,12.223,0,0,1-.364-3.2,10.183,10.183,0,0,1,1.085-5.157,3.459,3.459,0,0,1,3.159-1.832,3.86,3.86,0,0,1,2.839,1.183,9.629,9.629,0,0,1,1.987,3.7h.93V98.054h-.93l-.688.6a11.275,11.275,0,0,0-1.831-.728,8.077,8.077,0,0,0-2.394-.339,9.472,9.472,0,0,0-3.41.61,7.748,7.748,0,0,0-4.525,4.352,8.543,8.543,0,0,0-.637,3.326,8.4,8.4,0,0,0,.63,3.315,7.282,7.282,0,0,0,1.729,2.539,7.641,7.641,0,0,0,2.616,1.59,9.345,9.345,0,0,0,3.237.553,8.266,8.266,0,0,0,2.491-.34" transform="translate(-195.513 -42.452)" fill="#bf1238" fill-rule="evenodd"/><path d="M497.068,112.843c-.223-.019-.5-.048-.834-.106a3.629,3.629,0,0,1-.775-.194,1.113,1.113,0,0,1-.572-.446,1.337,1.337,0,0,1-.147-.65v-10.74a1.449,1.449,0,0,1,.147-.649.916.916,0,0,1,.572-.446,6.669,6.669,0,0,1,.8-.174c.29-.039.562-.078.8-.091v-.928h-8.141v.93a7.071,7.071,0,0,1,.707.146,4.8,4.8,0,0,1,.717.233,1.1,1.1,0,0,1,.533.446,1.333,1.333,0,0,1,.135.621v4.369h-6.745v-4.478a1.6,1.6,0,0,1,.126-.637.858.858,0,0,1,.533-.437,6.952,6.952,0,0,1,.678-.155,5.2,5.2,0,0,1,.756-.106v-.931H478.23v.93a5.8,5.8,0,0,1,.756.136,4.623,4.623,0,0,1,.852.252,1.131,1.131,0,0,1,.572.446,1.283,1.283,0,0,1,.146.63v10.722a1.417,1.417,0,0,1-.155.669.968.968,0,0,1-.563.427,3.76,3.76,0,0,1-.785.146c-.364.039-.637.058-.819.067v.931h8.141v-.931a6.077,6.077,0,0,1-.765-.117,3.688,3.688,0,0,1-.668-.182,1.029,1.029,0,0,1-.514-.446,1.421,1.421,0,0,1-.145-.65V106.33h6.745v5.234a1.366,1.366,0,0,1-.145.668,1.018,1.018,0,0,1-.523.417,2.24,2.24,0,0,1-.678.137c-.329.029-.572.038-.746.057v.931h8.141Z" transform="translate(-208.125 -42.811)" fill="#bf1238" fill-rule="evenodd"/><path d="M532.3,98.417h-6.512v.91a7.63,7.63,0,0,1,.94.233,2.556,2.556,0,0,1,.892.417,1.842,1.842,0,0,1,.552.969,8.406,8.406,0,0,1,.175,2v5.643l-7.879-10.17H514.62v.93a4.564,4.564,0,0,1,1.066.33,2.707,2.707,0,0,1,.834.572,2.186,2.186,0,0,1,.5.814,3.5,3.5,0,0,1,.156,1.019v7.183a9.606,9.606,0,0,1-.156,2.1,1.586,1.586,0,0,1-.562.941,2.549,2.549,0,0,1-.9.378,5.492,5.492,0,0,1-.939.155v.931h6.512v-.931a8.41,8.41,0,0,1-.959-.242,2.4,2.4,0,0,1-.882-.426,1.89,1.89,0,0,1-.552-1.019,9.5,9.5,0,0,1-.165-2.025v-7.164l9.147,11.808h2.016V102.915a9.987,9.987,0,0,1,.165-2.064,1.632,1.632,0,0,1,.552-.988,2.23,2.23,0,0,1,1-.417c.359-.058.65-.1.843-.117Z" transform="translate(-223.962 -42.811)" fill="#bf1238" fill-rule="evenodd"/><path d="M559.156,112.183a3.1,3.1,0,0,1-1.831.533,3.024,3.024,0,0,1-1.82-.533,3.9,3.9,0,0,1-1.221-1.483,8.118,8.118,0,0,1-.688-2.21,15.918,15.918,0,0,1-.223-2.7,11.014,11.014,0,0,1,1.008-5.2,3.186,3.186,0,0,1,2.946-1.842,3.089,3.089,0,0,1,1.911.591,4.394,4.394,0,0,1,1.221,1.561,8.345,8.345,0,0,1,.637,2.23,18.751,18.751,0,0,1,.182,2.569,16.149,16.149,0,0,1-.213,2.792,8.217,8.217,0,0,1-.7,2.21,3.8,3.8,0,0,1-1.211,1.474m1.424-14.028a9.453,9.453,0,0,0-3.256-.562,9.264,9.264,0,0,0-3.286.582,7.711,7.711,0,0,0-2.656,1.657,7.871,7.871,0,0,0-1.783,2.647,8.628,8.628,0,0,0-.649,3.422,7.888,7.888,0,0,0,.669,3.3,7.272,7.272,0,0,0,1.793,2.511,7.878,7.878,0,0,0,2.646,1.618,10,10,0,0,0,6.8-.091,7.8,7.8,0,0,0,2.64-1.774,7.363,7.363,0,0,0,1.628-2.627,9.1,9.1,0,0,0,.572-3.209,8.125,8.125,0,0,0-.669-3.373,7.69,7.69,0,0,0-1.82-2.521,8.192,8.192,0,0,0-2.626-1.58" transform="translate(-238.903 -42.453)" fill="#bf1238" fill-rule="evenodd"/><path d="M595.539,108.887a16.822,16.822,0,0,1-.91,1.842,7.3,7.3,0,0,1-1.114,1.561,2.024,2.024,0,0,1-1.153.455,13.346,13.346,0,0,1-1.657.1,12.487,12.487,0,0,1-1.365-.057,1.632,1.632,0,0,1-.776-.262.982.982,0,0,1-.364-.611,4.823,4.823,0,0,1-.1-1.115V100.715a1.5,1.5,0,0,1,.137-.669.888.888,0,0,1,.562-.436,4.34,4.34,0,0,1,.814-.165c.31-.038.582-.077.815-.1v-.932h-8.374v.931c.194.029.455.077.775.136a3.426,3.426,0,0,1,.834.242,1.082,1.082,0,0,1,.592.455,1.352,1.352,0,0,1,.126.63v10.7a1.446,1.446,0,0,1-.156.689,1.085,1.085,0,0,1-.562.416,4.113,4.113,0,0,1-.7.137c-.34.039-.65.077-.91.1v.931h14.119l.3-4.886Z" transform="translate(-253.307 -42.811)" fill="#bf1238" fill-rule="evenodd"/><path d="M619.993,112.183a3.1,3.1,0,0,1-1.831.533,3.022,3.022,0,0,1-1.82-.533,3.9,3.9,0,0,1-1.221-1.483,8.464,8.464,0,0,1-.7-2.21,16.931,16.931,0,0,1-.213-2.7,11,11,0,0,1,1.008-5.2,3.186,3.186,0,0,1,2.946-1.842,3.094,3.094,0,0,1,1.911.591,4.4,4.4,0,0,1,1.222,1.561,8.355,8.355,0,0,1,.637,2.23,18.829,18.829,0,0,1,.182,2.569,17.136,17.136,0,0,1-.214,2.792,8.219,8.219,0,0,1-.7,2.21,3.812,3.812,0,0,1-1.212,1.473m1.424-14.028a9.455,9.455,0,0,0-3.256-.562,9.264,9.264,0,0,0-3.286.582,7.7,7.7,0,0,0-2.655,1.657,7.862,7.862,0,0,0-1.784,2.647,8.63,8.63,0,0,0-.649,3.422,7.876,7.876,0,0,0,.669,3.3,7.282,7.282,0,0,0,1.793,2.511,7.873,7.873,0,0,0,2.645,1.618,10,10,0,0,0,6.8-.091,7.9,7.9,0,0,0,2.64-1.774,7.69,7.69,0,0,0,1.638-2.627,9.316,9.316,0,0,0,.562-3.209,8.125,8.125,0,0,0-.669-3.373,7.8,7.8,0,0,0-1.812-2.521,8.345,8.345,0,0,0-2.64-1.58" transform="translate(-265.379 -42.453)" fill="#bf1238" fill-rule="evenodd"/><path d="M660.333,106.435h-7.908v.93c.214.029.484.067.815.136a4.308,4.308,0,0,1,.814.243,1.052,1.052,0,0,1,.552.436,1.26,1.26,0,0,1,.147.631V111.8a3.836,3.836,0,0,1-1.211.65,5.245,5.245,0,0,1-1.773.273,3.652,3.652,0,0,1-3.295-1.9,10.109,10.109,0,0,1-1.163-5.274,9.275,9.275,0,0,1,1.142-4.984,3.627,3.627,0,0,1,3.237-1.8,3.9,3.9,0,0,1,2.927,1.2,9.781,9.781,0,0,1,2,3.684h.93V98.059h-.93l-.678.6a12.414,12.414,0,0,0-1.88-.717,8.474,8.474,0,0,0-2.471-.35,10.269,10.269,0,0,0-3.585.6,7.59,7.59,0,0,0-2.742,1.7,7.27,7.27,0,0,0-1.754,2.647,9.009,9.009,0,0,0-.61,3.344,8.75,8.75,0,0,0,.637,3.441,7.142,7.142,0,0,0,1.773,2.511,7.372,7.372,0,0,0,2.6,1.532,9.761,9.761,0,0,0,3.178.514,16.038,16.038,0,0,0,3.954-.562,13.141,13.141,0,0,0,3.246-1.192c-.009-.319-.019-.582-.029-.8s-.009-.5-.009-.853v-1.745a1.593,1.593,0,0,1,.146-.669.954.954,0,0,1,.62-.455,4.922,4.922,0,0,1,.7-.165c.182-.029.388-.058.63-.078Z" transform="translate(-279.784 -42.453)" fill="#bf1238" fill-rule="evenodd"/><path d="M683.947,112.843a7.521,7.521,0,0,1-.882-.117,3.407,3.407,0,0,1-.746-.182,1.049,1.049,0,0,1-.552-.436,1.407,1.407,0,0,1-.146-.66v-10.74a1.639,1.639,0,0,1,.136-.669.879.879,0,0,1,.562-.427,3.962,3.962,0,0,1,.815-.174c.33-.029.6-.068.814-.091v-.929h-8.374v.93c.242.029.533.091.873.156a4.807,4.807,0,0,1,.766.223.994.994,0,0,1,.546.446,1.354,1.354,0,0,1,.146.637v10.751a1.366,1.366,0,0,1-.147.668,1.028,1.028,0,0,1-.546.417,2.985,2.985,0,0,1-.785.137c-.378.029-.659.038-.853.057v.931h8.374Z" transform="translate(-294.008 -42.811)" fill="#bf1238" fill-rule="evenodd"/><path d="M707.569,98.417H693.847v.93c.175.02.446.068.795.146a3.839,3.839,0,0,1,.814.233,1.078,1.078,0,0,1,.592.455,1.356,1.356,0,0,1,.127.631v10.7a1.371,1.371,0,0,1-.146.669,1.111,1.111,0,0,1-.573.436,3.3,3.3,0,0,1-.755.146c-.359.048-.649.067-.853.091v.931h14.594l.291-4.886h-.93a12.133,12.133,0,0,1-.863,1.7,9.74,9.74,0,0,1-1.191,1.687,1.23,1.23,0,0,1-.592.329,7.344,7.344,0,0,1-.852.166,8.839,8.839,0,0,1-.95.067c-.358.01-.669.01-.92.01a9.325,9.325,0,0,1-1.3-.067,1.548,1.548,0,0,1-.746-.273,1.12,1.12,0,0,1-.4-.621,4.8,4.8,0,0,1-.1-1.1v-4.449h1.589a4.06,4.06,0,0,1,1.143.146,1.924,1.924,0,0,1,.843.546,3.258,3.258,0,0,1,.513.95,5.411,5.411,0,0,1,.329,1.153h.93v-6.514h-.93a5.926,5.926,0,0,1-.329,1.153,2.855,2.855,0,0,1-.513.921,2.08,2.08,0,0,1-.892.572,3.848,3.848,0,0,1-1.092.146H699.9V99.347h2.247c.252,0,.573.01.96.02a4.23,4.23,0,0,1,.91.1,2.88,2.88,0,0,1,1.532,1.086,5.811,5.811,0,0,1,1.092,1.82h.93Z" transform="translate(-301.96 -42.811)" fill="#bf1238" fill-rule="evenodd"/><path d="M732.522,113.511a6.652,6.652,0,0,0,2.016-1.057,4.652,4.652,0,0,0,1.26-1.561,4.294,4.294,0,0,0,.465-1.939,4.249,4.249,0,0,0-.833-2.666,5.384,5.384,0,0,0-2.4-1.677c-.446-.175-.94-.35-1.5-.523s-1.114-.364-1.647-.552a5.8,5.8,0,0,1-2.035-1.008,1.912,1.912,0,0,1-.649-1.492,2.027,2.027,0,0,1,.746-1.619,2.749,2.749,0,0,1,1.919-.659,3.623,3.623,0,0,1,1.628.359,4.352,4.352,0,0,1,1.221.969,7.007,7.007,0,0,1,.93,1.425,18.239,18.239,0,0,1,.766,1.667h.93V98.054H734.4l-.669.649a10.359,10.359,0,0,0-1.773-.736,7.517,7.517,0,0,0-2.413-.378,7.34,7.34,0,0,0-2.452.388,5.574,5.574,0,0,0-1.85.988,4.462,4.462,0,0,0-1.143,1.474,3.861,3.861,0,0,0-.4,1.7,4.4,4.4,0,0,0,.766,2.53,4.839,4.839,0,0,0,2.345,1.735c.465.175.949.35,1.473.523s1.086.35,1.7.546a5.5,5.5,0,0,1,2.1,1.086,2.042,2.042,0,0,1,.678,1.547,2.41,2.41,0,0,1-.815,1.861,3.292,3.292,0,0,1-2.316.746,3.955,3.955,0,0,1-1.967-.455,5.734,5.734,0,0,1-1.522-1.183,8.051,8.051,0,0,1-1.163-1.58,13.985,13.985,0,0,1-.819-1.667h-.93l.232,5.584h.93l.746-.756a10.767,10.767,0,0,0,2.073.853,9.214,9.214,0,0,0,2.64.369,8.808,8.808,0,0,0,2.665-.369" transform="translate(-314.751 -42.452)" fill="#bf1238" fill-rule="evenodd"/><path d="M397.348,150.606V148.26h-.669v6.02h.669v-3.035h3.043v3.035h.668v-6.02h-.668v2.346Z" transform="translate(-172.634 -64.492)" fill="#bf1238" fill-rule="evenodd"/><path d="M414.066,148.522a2.578,2.578,0,1,1-1.826.759,2.589,2.589,0,0,1,1.826-.759m0-.637a3.228,3.228,0,1,0,3.237,3.238,3.228,3.228,0,0,0-3.237-3.238" transform="translate(-178.789 -64.328)" fill="#bf1238" fill-rule="evenodd"/><path d="M427.923,153.922h.7l.794-4.15h.01l1.967,4.411,1.978-4.413h.019l.785,4.15h.7l-1.241-6.485-2.239,5.157-2.219-5.157Z" transform="translate(-186.231 -64.134)" fill="#bf1238" fill-rule="evenodd"/><path d="M446.351,154.136h3.168V153.5h-2.5v-2.414h2.422v-.637h-2.422v-1.92h2.5v-.637h-3.168Z" transform="translate(-194.251 -64.328)" fill="#bf1238" fill-rule="evenodd"/><path d="M469.088,148.522h1.493v-.637H466.94v.637h1.483v5.594h.668Z" transform="translate(-203.211 -64.328)" fill="#bf1238" fill-rule="evenodd"/><path d="M479.379,154.136h3.159V153.5h-2.49v-2.414h2.422v-.637h-2.422v-1.92h2.49v-.637h-3.159Z" transform="translate(-208.625 -64.328)" fill="#bf1238" fill-rule="evenodd"/><path d="M495.937,148.483a2.988,2.988,0,0,0-1.831-.6,3.228,3.228,0,1,0,1.831,5.855v-.863a2.68,2.68,0,0,1-1.86.825,2.588,2.588,0,1,1,1.86-4.353Z" transform="translate(-213.642 -64.328)" fill="#bf1238" fill-rule="evenodd"/><path d="M507.434,150.606V148.26h-.669v6.02h.669v-3.035h3.052v3.035h.669v-6.02h-.669v2.346Z" transform="translate(-220.542 -64.492)" fill="#bf1238" fill-rule="evenodd"/><path d="M521.741,154.081h.669v-4.634l4.651,4.915v-6.3h-.669v4.662l-4.651-4.915Z" transform="translate(-227.06 -64.297)" fill="#bf1238" fill-rule="evenodd"/><path d="M540.867,148.522a2.589,2.589,0,1,1-2.569,2.589,2.589,2.589,0,0,1,2.569-2.589m0-.637a3.231,3.231,0,1,0,2.3.944,3.228,3.228,0,0,0-2.3-.944" transform="translate(-233.976 -64.328)" fill="#bf1238" fill-rule="evenodd"/><path d="M556.226,148.261h-.669V154.3h2.366v-.637h-1.7Z" transform="translate(-241.777 -64.493)" fill="#bf1238" fill-rule="evenodd"/><path d="M568.061,148.522a2.589,2.589,0,1,1-2.569,2.589,2.589,2.589,0,0,1,2.569-2.589m0-.637a3.237,3.237,0,1,0,2.3.945,3.228,3.228,0,0,0-2.3-.945" transform="translate(-245.812 -64.328)" fill="#bf1238" fill-rule="evenodd"/><path d="M585.437,151.139v.637h1.842a2.113,2.113,0,0,1-2.21,1.92,2.631,2.631,0,0,1-1.754-.775,2.492,2.492,0,0,1-.717-1.746,2.6,2.6,0,0,1,2.519-2.656,2.509,2.509,0,0,1,2.132,1.2l.455-.485a3.046,3.046,0,0,0-2.578-1.357,3.236,3.236,0,0,0-3.2,3.3,3.178,3.178,0,0,0,3.159,3.161,3.026,3.026,0,0,0,2.275-1.028,3.1,3.1,0,0,0,.581-2.172Z" transform="translate(-253.254 -64.327)" fill="#bf1238" fill-rule="evenodd"/><path d="M600.175,151.7v2.579h.669V151.7l2-3.441h-.785l-1.56,2.685-1.547-2.685h-.795Z" transform="translate(-260.317 -64.493)" fill="#bf1238" fill-rule="evenodd"/><path d="M624.665,148.843a1.723,1.723,0,0,0-1.56-.96,1.593,1.593,0,0,0-1.686,1.58c0,.9.6,1.27,1.308,1.609l.364.165c.562.262,1.114.514,1.114,1.241a1.232,1.232,0,0,1-1.241,1.221,1.263,1.263,0,0,1-1.211-1.163l-.66.195a1.9,1.9,0,0,0,3.78-.32c0-.988-.659-1.4-1.445-1.754l-.4-.182c-.416-.194-.949-.436-.949-.979a.972.972,0,0,1,1-.969,1.107,1.107,0,0,1,1.047.678Z" transform="translate(-270.299 -64.327)" fill="#bf1238" fill-rule="evenodd"/><path d="M635.083,148.522h.251c.815,0,1.638.078,1.638,1.173,0,.959-.659,1.212-1.434,1.212h-.455Zm0,3.025h.5a2.256,2.256,0,0,0,1.473-.408,1.912,1.912,0,0,0,.581-1.424,1.833,1.833,0,0,0-.678-1.5,2.68,2.68,0,0,0-1.547-.329h-1v6.233h.669Z" transform="translate(-276.095 -64.327)" fill="#bf1238" fill-rule="evenodd"/><path d="M646.338,154.136h3.168V153.5h-2.5v-2.414h2.423v-.637h-2.423v-1.92h2.5v-.637h-3.168Z" transform="translate(-281.284 -64.328)" fill="#bf1238" fill-rule="evenodd"/><path d="M662.907,148.483a2.949,2.949,0,0,0-1.831-.6,3.228,3.228,0,1,0,0,6.456,3.179,3.179,0,0,0,1.831-.6v-.863a2.658,2.658,0,0,1-1.85.825,2.589,2.589,0,1,1,1.85-4.353Z" transform="translate(-286.312 -64.328)" fill="#bf1238" fill-rule="evenodd"/><rect width="0.669" height="6.02" transform="translate(380.529 83.768)" fill="#bf1238"/><path d="M684.444,151.763H682.39l1.037-2.453Zm.273.637.717,1.638h.755l-2.742-6.33-2.81,6.33h.736l.737-1.638Z" transform="translate(-296.211 -64.253)" fill="#bf1238" fill-rule="evenodd"/><path d="M697.295,148.261h-.669V154.3h2.366v-.637h-1.7Z" transform="translate(-303.17 -64.493)" fill="#bf1238" fill-rule="evenodd"/><rect width="0.669" height="6.02" transform="translate(399.155 83.768)" fill="#bf1238"/><path d="M717.838,148.843a1.7,1.7,0,0,0-1.547-.96,1.593,1.593,0,0,0-1.687,1.58c0,.9.6,1.27,1.308,1.609l.364.165c.562.262,1.114.514,1.114,1.241a1.238,1.238,0,0,1-1.241,1.221,1.265,1.265,0,0,1-1.211-1.163l-.659.195a1.9,1.9,0,0,0,3.779-.32c0-.988-.669-1.4-1.456-1.754l-.4-.182c-.407-.194-.94-.436-.94-.979a.972.972,0,0,1,1-.969,1.085,1.085,0,0,1,1.037.678Z" transform="translate(-310.854 -64.327)" fill="#bf1238" fill-rule="evenodd"/><path d="M728.752,148.522h1.5v-.637H726.6v.637h1.483v5.594h.669Z" transform="translate(-316.215 -64.328)" fill="#bf1238" fill-rule="evenodd"/><path d="M742.04,148.843a1.724,1.724,0,0,0-1.561-.96,1.593,1.593,0,0,0-1.686,1.58c0,.9.6,1.27,1.308,1.609l.364.165c.562.262,1.114.514,1.114,1.241a1.232,1.232,0,0,1-1.241,1.221,1.263,1.263,0,0,1-1.211-1.163l-.66.195a1.9,1.9,0,0,0,3.78-.32c0-.988-.658-1.4-1.444-1.754l-.407-.182c-.407-.194-.94-.436-.94-.979a.971.971,0,0,1,1-.969,1.107,1.107,0,0,1,1.047.678Z" transform="translate(-321.381 -64.327)" fill="#bf1238" fill-rule="evenodd"/><path d="M397.348,131.789h-.669v6.039h2.356v-.637h-1.687Z" transform="translate(-172.634 -57.327)" fill="#002468" fill-rule="evenodd"/><path d="M407.021,132.051a2.57,2.57,0,1,1-1.822.76,2.589,2.589,0,0,1,1.822-.76m0-.637a3.23,3.23,0,1,0,2.291.947,3.228,3.228,0,0,0-2.291-.947" transform="translate(-175.727 -57.164)" fill="#002468" fill-rule="evenodd"/><path d="M419.454,131.549h-.728l2.326,6.462,1.957-4.944,1.967,4.944,2.326-6.462h-.736l-1.589,4.6-1.967-4.915-1.957,4.915Z" transform="translate(-182.229 -57.088)" fill="#002468" fill-rule="evenodd"/><path d="M447.541,131.789h-.728l2.432,6.514,2.423-6.514h-.717l-1.706,4.692Z" transform="translate(-194.453 -57.327)" fill="#002468" fill-rule="evenodd"/><path d="M461.982,132.051a2.577,2.577,0,1,1-1.826.758,2.589,2.589,0,0,1,1.826-.758m0-.637a3.228,3.228,0,1,0,3.237,3.238,3.228,3.228,0,0,0-3.237-3.238" transform="translate(-199.643 -57.164)" fill="#002468" fill-rule="evenodd"/><path d="M475.174,131.789h-.669v6.039h2.366v-.637h-1.7Z" transform="translate(-206.504 -57.327)" fill="#002468" fill-rule="evenodd"/><path d="M483.614,132.051h1.5v-.637h-3.641v.637h1.473v5.593h.669Z" transform="translate(-209.536 -57.164)" fill="#002468" fill-rule="evenodd"/><path d="M494.315,135.292h-2.063l1.046-2.45Zm.273.637.717,1.638h.746l-2.731-6.331-2.822,6.331h.746l.736-1.638Z" transform="translate(-213.463 -57.088)" fill="#002468" fill-rule="evenodd"/><path d="M507.019,134.669v.637h1.831a2.1,2.1,0,0,1-2.2,1.92,2.592,2.592,0,0,1-1.754-.775,2.457,2.457,0,0,1-.728-1.746,2.6,2.6,0,0,1,2.529-2.656,2.482,2.482,0,0,1,2.122,1.2l.455-.485a3.031,3.031,0,0,0-2.569-1.356,3.238,3.238,0,0,0-3.207,3.3,3.186,3.186,0,0,0,3.169,3.161,3.058,3.058,0,0,0,2.275-1.028,3.1,3.1,0,0,0,.572-2.172Z" transform="translate(-219.122 -57.163)" fill="#002468" fill-rule="evenodd"/><path d="M518.669,137.665h3.168v-.637h-2.5v-2.413h2.432v-.637h-2.432v-1.92h2.5v-.637h-3.168Z" transform="translate(-225.723 -57.164)" fill="#002468" fill-rule="evenodd"/><path d="M542.155,132.371a1.722,1.722,0,0,0-1.561-.96,1.593,1.593,0,0,0-1.686,1.58c0,.9.6,1.27,1.309,1.609l.364.165c.562.261,1.114.513,1.114,1.241a1.232,1.232,0,0,1-1.241,1.221,1.264,1.264,0,0,1-1.21-1.163l-.659.194a1.9,1.9,0,0,0,3.779-.32c0-.988-.659-1.4-1.444-1.754l-.407-.182c-.408-.194-.94-.436-.94-.978a.972.972,0,0,1,1-.969,1.106,1.106,0,0,1,1.047.679Z" transform="translate(-234.392 -57.163)" fill="#002468" fill-rule="evenodd"/><path d="M550.658,135.23v2.576h.669V135.23l2-3.441h-.785l-1.56,2.685-1.547-2.685h-.8Z" transform="translate(-238.768 -57.327)" fill="#002468" fill-rule="evenodd"/><path d="M563.8,132.371a1.7,1.7,0,0,0-1.547-.96,1.593,1.593,0,0,0-1.686,1.58c0,.9.6,1.27,1.308,1.609l.369.165c.562.261,1.114.513,1.114,1.241a1.239,1.239,0,0,1-1.241,1.221,1.265,1.265,0,0,1-1.211-1.163l-.659.194a1.9,1.9,0,0,0,3.779-.32c0-.988-.669-1.4-1.456-1.754l-.4-.182c-.407-.194-.94-.436-.94-.978a.972.972,0,0,1,1-.969,1.085,1.085,0,0,1,1.038.679Z" transform="translate(-243.816 -57.163)" fill="#002468" fill-rule="evenodd"/><path d="M572.551,132.051h1.5v-.637H570.4v.637h1.482v5.593h.669Z" transform="translate(-248.236 -57.164)" fill="#002468" fill-rule="evenodd"/><path d="M580.677,137.665h3.168v-.637h-2.5v-2.413h2.422v-.637h-2.422v-1.92h2.5v-.637h-3.168Z" transform="translate(-252.709 -57.164)" fill="#002468" fill-rule="evenodd"/><path d="M590.079,137.451h.7l.785-4.15h.019l1.967,4.411,1.967-4.411h.02l.785,4.15h.707l-1.251-6.485-2.229,5.157-2.229-5.157Z" transform="translate(-256.801 -56.97)" fill="#002468" fill-rule="evenodd"/><path d="M609.326,132.371a1.712,1.712,0,0,0-1.56-.96,1.6,1.6,0,0,0-1.687,1.58c0,.9.611,1.27,1.309,1.609l.364.165c.562.261,1.114.513,1.114,1.241a1.231,1.231,0,0,1-1.24,1.221,1.274,1.274,0,0,1-1.211-1.163l-.659.194a1.9,1.9,0,0,0,3.779-.32c0-.988-.659-1.4-1.443-1.754l-.4-.182c-.407-.194-.949-.436-.949-.978a.973.973,0,0,1,1-.969,1.106,1.106,0,0,1,1.047.679Z" transform="translate(-263.625 -57.163)" fill="#002468" fill-rule="evenodd"/><rect width="0.669" height="6.02" transform="translate(354.229 74.462)" fill="#002468"/><path d="M633.143,137.615h.669v-4.634l4.652,4.915v-6.3H637.8v4.663l-4.652-4.915Z" transform="translate(-275.542 -57.133)" fill="#002468" fill-rule="evenodd"/><path d="M648.85,132.051h1.5v-.637H646.7v.637h1.483v5.593h.669Z" transform="translate(-281.442 -57.164)" fill="#002468" fill-rule="evenodd"/><path d="M656.976,137.665h3.168v-.637h-2.5v-2.413h2.422v-.637h-2.422v-1.92h2.5v-.637h-3.168Z" transform="translate(-285.914 -57.164)" fill="#002468" fill-rule="evenodd"/><path d="M669.886,134.669v.637h1.841a2.114,2.114,0,0,1-2.21,1.92,2.61,2.61,0,0,1-1.754-.775,2.489,2.489,0,0,1-.718-1.746,2.6,2.6,0,0,1,2.52-2.656,2.482,2.482,0,0,1,2.122,1.2l.455-.485a3.018,3.018,0,0,0-2.569-1.356,3.229,3.229,0,0,0-3.2,3.3,3.173,3.173,0,0,0,3.159,3.161,3.043,3.043,0,0,0,2.275-1.028,3.144,3.144,0,0,0,.581-2.172Z" transform="translate(-290.006 -57.163)" fill="#002468" fill-rule="evenodd"/><path d="M682.2,135.076h.165l1.754,2.569h.824l-1.88-2.628a1.668,1.668,0,0,0,1.463-1.82c0-1.474-1.037-1.784-2.132-1.784h-.863v6.234h.669Zm0-3.025h.194c.775,0,1.464.106,1.464,1.192,0,1.038-.728,1.192-1.456,1.192h-.2Z" transform="translate(-296.599 -57.164)" fill="#002468" fill-rule="evenodd"/><path d="M694.447,135.292h-2.053l1.036-2.45Zm.273.637.716,1.638h.756l-2.742-6.331-2.811,6.331h.736l.737-1.638Z" transform="translate(-300.564 -57.088)" fill="#002468" fill-rule="evenodd"/><path d="M705.641,132.051h1.492v-.637h-3.641v.637h1.483v5.593h.669Z" transform="translate(-306.157 -57.164)" fill="#002468" fill-rule="evenodd"/><path d="M716.183,132.051a2.589,2.589,0,1,1-2.569,2.588,2.589,2.589,0,0,1,2.569-2.588m0-.637a3.23,3.23,0,1,0,2.3.943,3.228,3.228,0,0,0-2.3-.943" transform="translate(-310.274 -57.164)" fill="#002468" fill-rule="evenodd"/><path d="M729.38,135.076h.156l1.754,2.569h.834l-1.89-2.628a1.669,1.669,0,0,0,1.473-1.82c0-1.474-1.047-1.784-2.141-1.784h-.853v6.234h.669Zm0-3.025h.182c.775,0,1.473.106,1.473,1.192,0,1.038-.736,1.192-1.463,1.192h-.194Z" transform="translate(-317.133 -57.164)" fill="#002468" fill-rule="evenodd"/><path d="M742.04,132.371a1.724,1.724,0,0,0-1.561-.96,1.593,1.593,0,0,0-1.686,1.58c0,.9.6,1.27,1.308,1.609l.364.165c.562.261,1.114.513,1.114,1.241a1.232,1.232,0,0,1-1.241,1.221,1.264,1.264,0,0,1-1.211-1.163l-.66.194a1.9,1.9,0,0,0,3.78-.32c0-.988-.658-1.4-1.444-1.754L740.4,134c-.407-.194-.94-.436-.94-.978a.972.972,0,0,1,1-.969,1.107,1.107,0,0,1,1.047.679Z" transform="translate(-321.381 -57.163)" fill="#002468" fill-rule="evenodd"/><path d="M513.3,308.156a31.228,31.228,0,1,1,62.455,0c0,12.6-4.386,16.11-28.018,50.383a3.9,3.9,0,0,1-6.419,0C517.686,324.268,513.3,320.75,513.3,308.156m44.235,0a13.016,13.016,0,1,0-13.016,13.016,13.016,13.016,0,0,0,13.016-13.016" transform="translate(-223.386 -120.458)" fill="#b61231"/><path d="M414.516,198.983v-1.51l5.516-7.294h1.917v7.231H423.5v1.573h-1.556v2.389h-1.8v-2.389Zm5.751-6.666-3.9,5.1h3.9Z" transform="translate(-180.397 -82.727)" fill="#333"/><path d="M436.4,196.468a4.818,4.818,0,0,0,1.532-3.1,2.053,2.053,0,0,0-.417-1.352,1.647,1.647,0,0,0-1.343-.5,1.729,1.729,0,0,0-1.445.621,3.085,3.085,0,0,0-.546,1.769h-1.745a4.169,4.169,0,0,1,1.171-2.913,3.78,3.78,0,0,1,2.711-1.007,3.58,3.58,0,0,1,2.539.856,3.076,3.076,0,0,1,.919,2.366,4.733,4.733,0,0,1-.746,2.452,10.237,10.237,0,0,1-1.893,2.287,15.967,15.967,0,0,1-2.373,1.8h5.264v1.463h-7.7v-1.321a23.637,23.637,0,0,0,4.079-3.42" transform="translate(-188.145 -82.641)" fill="#333"/><path d="M449.156,191.117a3.057,3.057,0,0,1,1.312-1.085,5.586,5.586,0,0,1,4.2,0,3.119,3.119,0,0,1,1.32,1.085,2.64,2.64,0,0,1,.448,1.494,2.605,2.605,0,0,1-.479,1.572,2.694,2.694,0,0,1-1.422.959,3.178,3.178,0,0,1,1.619,1.061,2.829,2.829,0,0,1,.565,1.784,3.03,3.03,0,0,1-1.147,2.523,5.422,5.422,0,0,1-6,0,3.038,3.038,0,0,1-1.14-2.523A2.829,2.829,0,0,1,449,196.2a3.175,3.175,0,0,1,1.618-1.061,2.7,2.7,0,0,1-1.423-.959,2.6,2.6,0,0,1-.479-1.572,2.671,2.671,0,0,1,.44-1.494m1.665,8.277a3.079,3.079,0,0,0,3.489,0,1.857,1.857,0,0,0,.645-1.5,1.714,1.714,0,0,0-.668-1.47,2.822,2.822,0,0,0-1.721-.5,2.789,2.789,0,0,0-1.713.5,1.711,1.711,0,0,0-.676,1.462,1.859,1.859,0,0,0,.644,1.5m.228-5.188a2.3,2.3,0,0,0,1.516.464,2.334,2.334,0,0,0,1.525-.464,1.808,1.808,0,0,0-.008-2.633,2.314,2.314,0,0,0-1.516-.471,2.282,2.282,0,0,0-1.508.471,1.82,1.82,0,0,0-.008,2.633" transform="translate(-195.157 -82.485)" fill="#333"/><path d="M479.526,190.346v1.446h-4.762v3.443h3.928v1.383h-3.928v4.824h-1.791v-11.1Z" transform="translate(-205.837 -82.799)" fill="#333"/><path d="M492.559,195.042a3.123,3.123,0,0,1,1.179,1.541v-2.012h1.792v8.663h-1.792v-2.012a3.124,3.124,0,0,1-1.179,1.54,3.419,3.419,0,0,1-2.011.582,3.832,3.832,0,0,1-2.019-.534,3.653,3.653,0,0,1-1.391-1.541,5.813,5.813,0,0,1,0-4.733,3.653,3.653,0,0,1,1.391-1.541,3.837,3.837,0,0,1,2.019-.534,3.42,3.42,0,0,1,2.011.582m-3.368,1.753a3.435,3.435,0,0,0,0,4.2,2.493,2.493,0,0,0,1.911.762,2.6,2.6,0,0,0,1.351-.353,2.508,2.508,0,0,0,.943-1,3.45,3.45,0,0,0,0-3.01,2.493,2.493,0,0,0-.943-1.007,2.6,2.6,0,0,0-1.351-.354,2.5,2.5,0,0,0-1.911.763" transform="translate(-211.782 -84.59)" fill="#333"/><path d="M506.064,188.641a1.16,1.16,0,0,1,.833-.3,1.189,1.189,0,0,1,.841.3.985.985,0,0,1,.322.755.938.938,0,0,1-.322.739,1.228,1.228,0,0,1-.841.283,1.2,1.2,0,0,1-.833-.283.948.948,0,0,1-.315-.739,1,1,0,0,1,.315-.755m1.729,11.932H506v-8.662h1.791Z" transform="translate(-220.1 -81.928)" fill="#333"/><path d="M516.255,194.9a3.567,3.567,0,0,1,1.886-.5v1.95h-.534a2.94,2.94,0,0,0-1.894.573,2.291,2.291,0,0,0-.714,1.894v4.386h-1.791V194.55H515v1.7a3.331,3.331,0,0,1,1.257-1.344" transform="translate(-223.346 -84.567)" fill="#333"/><path d="M529.452,195.042a3.125,3.125,0,0,1,1.183,1.541v-2.012h1.787v8.757a4.515,4.515,0,0,1-.5,2.146,3.623,3.623,0,0,1-1.422,1.47,4.336,4.336,0,0,1-2.2.534,4.7,4.7,0,0,1-2.946-.865,3.726,3.726,0,0,1-1.406-2.342h1.776a2.118,2.118,0,0,0,.848,1.2,2.768,2.768,0,0,0,1.6.432,2.445,2.445,0,0,0,1.759-.661,2.526,2.526,0,0,0,.692-1.918v-2.106a3.125,3.125,0,0,1-1.183,1.54,3.419,3.419,0,0,1-2.011.582,3.832,3.832,0,0,1-2.019-.534,3.652,3.652,0,0,1-1.391-1.541,5.813,5.813,0,0,1,0-4.733,3.652,3.652,0,0,1,1.391-1.541,3.836,3.836,0,0,1,2.019-.534,3.42,3.42,0,0,1,2.011.582m-3.368,1.753a3.436,3.436,0,0,0,0,4.2,2.493,2.493,0,0,0,1.911.762,2.6,2.6,0,0,0,1.351-.353,2.509,2.509,0,0,0,.943-1,3.449,3.449,0,0,0,0-3.01,2.5,2.5,0,0,0-.943-1.007,2.6,2.6,0,0,0-1.351-.354,2.5,2.5,0,0,0-1.911.763" transform="translate(-227.838 -84.59)" fill="#333"/><path d="M546.138,194.9a3.565,3.565,0,0,1,1.885-.5v1.95h-.534a2.938,2.938,0,0,0-1.893.573,2.29,2.29,0,0,0-.715,1.894v4.386h-1.791V194.55h1.791v1.7a3.339,3.339,0,0,1,1.258-1.344" transform="translate(-236.351 -84.567)" fill="#333"/><path d="M560.075,195a3.837,3.837,0,0,1,1.572,1.541,5.233,5.233,0,0,1,0,4.733,3.837,3.837,0,0,1-1.572,1.541,5.041,5.041,0,0,1-4.518,0,3.888,3.888,0,0,1-1.571-1.547,5.153,5.153,0,0,1,0-4.724A3.9,3.9,0,0,1,555.556,195a5.045,5.045,0,0,1,4.518,0m-3.536,1.336a2.317,2.317,0,0,0-.935.967,3.8,3.8,0,0,0,0,3.2,2.323,2.323,0,0,0,.935.958,2.737,2.737,0,0,0,2.549,0,2.324,2.324,0,0,0,.935-.958,3.8,3.8,0,0,0,0-3.2,2.318,2.318,0,0,0-.935-.967,2.737,2.737,0,0,0-2.548,0" transform="translate(-240.844 -84.591)" fill="#333"/><path d="M579.878,194.659v8.662H578.07v-1.89a2.791,2.791,0,0,1-1.147,1.485,3.43,3.43,0,0,1-1.9.527,3.156,3.156,0,0,1-2.42-.975,3.925,3.925,0,0,1-.91-2.782v-5.031h1.792V199.5a2.554,2.554,0,0,0,.6,1.82,2.132,2.132,0,0,0,1.638.637,2.23,2.23,0,0,0,1.713-.692,2.849,2.849,0,0,0,.644-2.012v-4.59Z" transform="translate(-248.798 -84.675)" fill="#333"/><path d="M597.261,195.384a3.925,3.925,0,0,1,.91,2.782v5.047h-1.79v-4.858a2.53,2.53,0,0,0-.6-1.8,2.132,2.132,0,0,0-1.638-.637,2.245,2.245,0,0,0-1.713.684,2.822,2.822,0,0,0-.644,2v4.606H590v-8.661h1.791v1.9a2.9,2.9,0,0,1,1.163-1.5,3.368,3.368,0,0,1,1.886-.534,3.158,3.158,0,0,1,2.42.975" transform="translate(-256.767 -84.567)" fill="#333"/><path d="M613.315,192.843a3.044,3.044,0,0,1,1.162,1.541V189.4h1.808v11.633h-1.808v-2.012a3.046,3.046,0,0,1-1.162,1.54,3.425,3.425,0,0,1-2.012.582,3.838,3.838,0,0,1-2.02-.534,3.657,3.657,0,0,1-1.391-1.541,5.819,5.819,0,0,1,0-4.733,3.657,3.657,0,0,1,1.391-1.541,3.842,3.842,0,0,1,2.02-.534,3.425,3.425,0,0,1,2.011.582m-3.368,1.753a3.44,3.44,0,0,0,0,4.2,2.492,2.492,0,0,0,1.911.762,2.6,2.6,0,0,0,1.351-.353,2.508,2.508,0,0,0,.943-1,3.45,3.45,0,0,0,0-3.01,2.494,2.494,0,0,0-.943-1.007,2.594,2.594,0,0,0-1.351-.354,2.494,2.494,0,0,0-1.911.763" transform="translate(-264.334 -82.387)" fill="#333"/><path d="M631.958,195.241a3.291,3.291,0,0,1,1.123,2.083h-1.7a1.827,1.827,0,0,0-.605-1.14,1.925,1.925,0,0,0-1.312-.432,1.541,1.541,0,0,0-1.045.322,1.1,1.1,0,0,0-.369.872.864.864,0,0,0,.268.661,1.853,1.853,0,0,0,.668.392,11.286,11.286,0,0,0,1.14.314,11.511,11.511,0,0,1,1.579.455,2.557,2.557,0,0,1,1.037.747,2.084,2.084,0,0,1,.432,1.391,2.169,2.169,0,0,1-.826,1.76,3.4,3.4,0,0,1-2.223.675,4.229,4.229,0,0,1-2.618-.755,3.108,3.108,0,0,1-1.2-2.106h1.745a1.646,1.646,0,0,0,.628,1.147,2.247,2.247,0,0,0,1.446.441,1.444,1.444,0,0,0,1.013-.338,1.113,1.113,0,0,0,.37-.857.948.948,0,0,0-.283-.724,1.974,1.974,0,0,0-.707-.416,9.886,9.886,0,0,0-1.163-.307,12.783,12.783,0,0,1-1.533-.441,2.392,2.392,0,0,1-1.006-.715,2.024,2.024,0,0,1-.416-1.344,2.21,2.21,0,0,1,.826-1.784,3.48,3.48,0,0,1,2.286-.684,3.658,3.658,0,0,1,2.444.778" transform="translate(-272.568 -84.59)" fill="#333"/><path d="M653.981,201.444l-2.766-4.433H649.94v4.433h-1.791v-11.1h3.914a4.051,4.051,0,0,1,2.883.927,3.217,3.217,0,0,1,.982,2.453,3.122,3.122,0,0,1-.728,2.138,3.478,3.478,0,0,1-2.114,1.069l2.907,4.512Zm-4.039-5.707h1.981q2.169,0,2.168-1.918a1.89,1.89,0,0,0-.526-1.422,2.286,2.286,0,0,0-1.638-.512h-1.981Z" transform="translate(-282.073 -82.798)" fill="#333"/><path d="M670.672,195a3.831,3.831,0,0,1,1.572,1.541,5.233,5.233,0,0,1,0,4.733,3.831,3.831,0,0,1-1.572,1.541,5.04,5.04,0,0,1-4.518,0,3.881,3.881,0,0,1-1.571-1.547,5.148,5.148,0,0,1,0-4.724A3.9,3.9,0,0,1,666.153,195a5.045,5.045,0,0,1,4.518,0m-3.535,1.336a2.311,2.311,0,0,0-.936.967,3.8,3.8,0,0,0,0,3.2,2.317,2.317,0,0,0,.936.958,2.737,2.737,0,0,0,2.549,0,2.327,2.327,0,0,0,.934-.958,3.8,3.8,0,0,0,0-3.2,2.32,2.32,0,0,0-.934-.967,2.737,2.737,0,0,0-2.548,0" transform="translate(-288.975 -84.591)" fill="#333"/><path d="M687.8,195.042a3.127,3.127,0,0,1,1.178,1.541v-2.012h1.792v8.663h-1.792v-2.012a3.128,3.128,0,0,1-1.178,1.54,3.424,3.424,0,0,1-2.011.582,3.836,3.836,0,0,1-2.02-.534,3.653,3.653,0,0,1-1.391-1.541,5.819,5.819,0,0,1,0-4.733,3.653,3.653,0,0,1,1.391-1.541,3.84,3.84,0,0,1,2.02-.534,3.423,3.423,0,0,1,2.011.582m-3.368,1.753a3.44,3.44,0,0,0,0,4.2,2.492,2.492,0,0,0,1.911.762,2.6,2.6,0,0,0,1.351-.353,2.5,2.5,0,0,0,.943-1,3.45,3.45,0,0,0,0-3.01,2.489,2.489,0,0,0-.943-1.007,2.6,2.6,0,0,0-1.351-.354,2.5,2.5,0,0,0-1.911.763" transform="translate(-296.75 -84.59)" fill="#333"/><path d="M706.578,192.843a3.042,3.042,0,0,1,1.162,1.541V189.4h1.808v11.633h-1.808v-2.012a3.043,3.043,0,0,1-1.162,1.54,3.424,3.424,0,0,1-2.012.582,3.835,3.835,0,0,1-2.019-.534,3.653,3.653,0,0,1-1.392-1.541,5.819,5.819,0,0,1,0-4.733,3.653,3.653,0,0,1,1.392-1.541,3.839,3.839,0,0,1,2.019-.534,3.423,3.423,0,0,1,2.011.582m-3.368,1.753a3.441,3.441,0,0,0,0,4.2,2.493,2.493,0,0,0,1.911.762,2.6,2.6,0,0,0,1.351-.353,2.506,2.506,0,0,0,.943-1,3.45,3.45,0,0,0,0-3.01,2.492,2.492,0,0,0-.943-1.007,2.6,2.6,0,0,0-1.351-.354,2.5,2.5,0,0,0-1.911.763" transform="translate(-304.923 -82.387)" fill="#333"/><path d="M721.137,209.313a2.2,2.2,0,0,1-.455,1.438,1.683,1.683,0,0,1-1.384.558v-.724a.756.756,0,0,0,.582-.2,1.012,1.012,0,0,0,.188-.692v-.142h-.91v-1.729h1.7a4.063,4.063,0,0,1,.283,1.494" transform="translate(-312.975 -90.4)" fill="#333"/><path d="M428.494,238.209v4.308H426.7v-11.1h3.772a4.059,4.059,0,0,1,2.883.91,3.268,3.268,0,0,1,.967,2.5,3.186,3.186,0,0,1-.989,2.476,4.1,4.1,0,0,1-2.86.9Zm4-3.38a1.88,1.88,0,0,0-.526-1.438,2.412,2.412,0,0,0-1.689-.5h-1.792v3.851h1.792q2.215,0,2.215-1.918" transform="translate(-185.7 -100.665)" fill="#333"/><path d="M448.125,236.119a3.132,3.132,0,0,1,1.183,1.541v-2.012H451.1v8.662h-1.791V242.3a3.133,3.133,0,0,1-1.183,1.54,3.423,3.423,0,0,1-2.011.582,3.835,3.835,0,0,1-2.019-.534,3.658,3.658,0,0,1-1.391-1.541,5.82,5.82,0,0,1,0-4.733,3.653,3.653,0,0,1,1.391-1.54,3.835,3.835,0,0,1,2.019-.534,3.427,3.427,0,0,1,2.011.582m-3.368,1.753a3.44,3.44,0,0,0,0,4.2,2.493,2.493,0,0,0,1.911.762,2.6,2.6,0,0,0,1.351-.353,2.517,2.517,0,0,0,.944-1,3.45,3.45,0,0,0,0-3.01,2.5,2.5,0,0,0-.944-1.007,2.6,2.6,0,0,0-1.351-.354,2.5,2.5,0,0,0-1.911.762" transform="translate(-192.445 -102.457)" fill="#333"/><path d="M461.63,229.714a1.16,1.16,0,0,1,.833-.3,1.183,1.183,0,0,1,.84.3.985.985,0,0,1,.322.755.937.937,0,0,1-.322.739,1.226,1.226,0,0,1-.84.283,1.2,1.2,0,0,1-.833-.283.947.947,0,0,1-.314-.739,1,1,0,0,1,.314-.755m1.729,11.932h-1.791v-8.662h1.791Z" transform="translate(-200.764 -99.794)" fill="#333"/><path d="M476.032,236.456a3.925,3.925,0,0,1,.91,2.782v5.047h-1.791v-4.858a2.53,2.53,0,0,0-.6-1.8,2.131,2.131,0,0,0-1.638-.637,2.243,2.243,0,0,0-1.713.684,2.821,2.821,0,0,0-.644,2v4.606h-1.791v-8.661h1.791v1.9a2.9,2.9,0,0,1,1.163-1.509,3.368,3.368,0,0,1,1.886-.534,3.157,3.157,0,0,1,2.42.975" transform="translate(-204.008 -102.433)" fill="#333"/><path d="M494.585,240.327h-6.659a2.723,2.723,0,0,0,.739,1.981,2.415,2.415,0,0,0,1.713.644,2.491,2.491,0,0,0,1.516-.455,1.883,1.883,0,0,0,.762-1.211h1.914a3.684,3.684,0,0,1-2.153,2.731,4.694,4.694,0,0,1-1.964.4,4.514,4.514,0,0,1-2.224-.534,3.8,3.8,0,0,1-1.516-1.54,5.364,5.364,0,0,1,0-4.733,3.8,3.8,0,0,1,1.516-1.541,4.925,4.925,0,0,1,4.447-.008,3.659,3.659,0,0,1,1.461,1.446,4.46,4.46,0,0,1,.448,2.822m-2.035-2.24a2.02,2.02,0,0,0-.88-.848,2.718,2.718,0,0,0-1.217-.273,2.513,2.513,0,0,0-1.76.644,2.633,2.633,0,0,0-.77,1.9h4.915a2.668,2.668,0,0,0-.291-1.424" transform="translate(-211.577 -102.457)" fill="#333"/><path d="M509.256,236.314a3.3,3.3,0,0,1,1.123,2.083h-1.7a1.833,1.833,0,0,0-.605-1.14,1.926,1.926,0,0,0-1.312-.432,1.541,1.541,0,0,0-1.045.322,1.1,1.1,0,0,0-.369.872.865.865,0,0,0,.267.661,1.87,1.87,0,0,0,.668.392,11.365,11.365,0,0,0,1.14.314,11.5,11.5,0,0,1,1.58.455,2.564,2.564,0,0,1,1.037.747,2.085,2.085,0,0,1,.432,1.391,2.169,2.169,0,0,1-.825,1.76,3.4,3.4,0,0,1-2.224.675,4.228,4.228,0,0,1-2.617-.755,3.106,3.106,0,0,1-1.2-2.106h1.745a1.638,1.638,0,0,0,.628,1.147,2.243,2.243,0,0,0,1.446.441,1.443,1.443,0,0,0,1.013-.338,1.112,1.112,0,0,0,.369-.857.948.948,0,0,0-.283-.724,1.973,1.973,0,0,0-.707-.417,9.932,9.932,0,0,0-1.163-.307,12.792,12.792,0,0,1-1.533-.44,2.385,2.385,0,0,1-1.006-.715A2.023,2.023,0,0,1,503.7,238a2.205,2.205,0,0,1,.826-1.784,3.481,3.481,0,0,1,2.286-.684,3.658,3.658,0,0,1,2.444.778" transform="translate(-219.169 -102.457)" fill="#333"/><path d="M521.837,242.539l2.452-6.806h1.917l-3.3,8.661h-2.168l-3.3-8.661h1.916Z" transform="translate(-225.188 -102.543)" fill="#333"/><path d="M535.169,229.714a1.16,1.16,0,0,1,.833-.3,1.189,1.189,0,0,1,.84.3.984.984,0,0,1,.322.755.937.937,0,0,1-.322.739,1.227,1.227,0,0,1-.84.283,1.2,1.2,0,0,1-.833-.283.946.946,0,0,1-.315-.739.994.994,0,0,1,.315-.755m1.729,11.932h-1.793v-8.662H536.9Z" transform="translate(-232.766 -99.794)" fill="#333"/><rect width="1.791" height="11.633" transform="translate(306.298 130.219)" fill="#333"/><rect width="1.791" height="11.633" transform="translate(310.258 130.219)" fill="#333"/><path d="M563.977,240.327h-6.663a2.725,2.725,0,0,0,.739,1.981,2.414,2.414,0,0,0,1.713.644,2.492,2.492,0,0,0,1.516-.455,1.882,1.882,0,0,0,.762-1.211h1.917a3.681,3.681,0,0,1-2.153,2.731,4.694,4.694,0,0,1-1.964.4,4.513,4.513,0,0,1-2.223-.534,3.8,3.8,0,0,1-1.516-1.54,5.363,5.363,0,0,1,0-4.733,3.8,3.8,0,0,1,1.516-1.541,4.925,4.925,0,0,1,4.447-.008,3.667,3.667,0,0,1,1.461,1.446,4.46,4.46,0,0,1,.448,2.822m-2.035-2.24a2.019,2.019,0,0,0-.88-.848,2.721,2.721,0,0,0-1.218-.273,2.512,2.512,0,0,0-1.759.644,2.631,2.631,0,0,0-.77,1.9h4.915a2.672,2.672,0,0,0-.291-1.424" transform="translate(-241.776 -102.457)" fill="#333"/><path d="M574.563,250.386a2.2,2.2,0,0,1-.455,1.438,1.682,1.682,0,0,1-1.384.558v-.724a.755.755,0,0,0,.582-.2,1.011,1.011,0,0,0,.188-.692v-.142h-.91v-1.729h1.7a4.068,4.068,0,0,1,.283,1.494" transform="translate(-249.187 -108.267)" fill="#333"/><path d="M593.17,231.893a5.17,5.17,0,0,1,1.964,2.02,6.371,6.371,0,0,1,0,5.863,5.229,5.229,0,0,1-1.964,2.028,5.718,5.718,0,0,1-5.595,0,5.279,5.279,0,0,1-1.972-2.028,6.311,6.311,0,0,1,0-5.863,5.22,5.22,0,0,1,1.972-2.02,5.768,5.768,0,0,1,5.595,0m-4.691,1.43a3.318,3.318,0,0,0-1.3,1.4,5.082,5.082,0,0,0,0,4.244,3.312,3.312,0,0,0,1.3,1.4,3.693,3.693,0,0,0,1.9.488,3.62,3.62,0,0,0,1.878-.488,3.333,3.333,0,0,0,1.289-1.4,5.1,5.1,0,0,0,0-4.244,3.338,3.338,0,0,0-1.289-1.4,3.625,3.625,0,0,0-1.878-.487,3.7,3.7,0,0,0-1.9.487" transform="translate(-254.538 -100.557)" fill="#333"/><path d="M616.317,231.419v11.1h-1.809v-4.984h-5.217v4.984H607.5v-11.1h1.791v4.654h5.217v-4.654Z" transform="translate(-264.383 -100.666)" fill="#333"/><path d="M632.514,240.056v-1.51l5.516-7.294h1.917v7.234H641.5v1.573h-1.556v2.389h-1.808v-2.389Zm5.751-6.666-3.9,5.1h3.9Z" transform="translate(-275.268 -100.593)" fill="#333"/><path d="M650.182,240.056v-1.51l5.516-7.294h1.917v7.234h1.556v1.573h-1.556v2.389h-1.808v-2.389Zm5.751-6.667-3.9,5.1h3.9Z" transform="translate(-282.958 -100.593)" fill="#333"/><path d="M668.321,236.769a7.721,7.721,0,0,1,.943-4.135,4.048,4.048,0,0,1,6.286.008,7.722,7.722,0,0,1,.943,4.126,7.8,7.8,0,0,1-.943,4.15,4.034,4.034,0,0,1-6.286.008,7.8,7.8,0,0,1-.943-4.159m6.38,0a7.076,7.076,0,0,0-.471-2.9,2.163,2.163,0,0,0-3.662-.008,7.066,7.066,0,0,0-.472,2.913,7.234,7.234,0,0,0,.472,2.94,2.151,2.151,0,0,0,3.662,0,7.234,7.234,0,0,0,.472-2.94" transform="translate(-290.851 -100.545)" fill="#333"/><path d="M691.95,232.66l-4.133,9.81h-1.886l4.2-9.605h-5.5v-1.556h7.322Z" transform="translate(-297.948 -100.618)" fill="#333"/><path d="M706.057,232.66l-4.132,9.81h-1.886l4.2-9.605h-5.5v-1.556h7.322Z" transform="translate(-304.088 -100.618)" fill="#333"/></g></g></svg>