<svg xmlns="http://www.w3.org/2000/svg" xmlns:xlink="http://www.w3.org/1999/xlink" width="300" height="300" viewBox="0 0 300 300">
  <defs>
    <clipPath id="clip-path">
      <rect id="Rectangle_5" data-name="Rectangle 5" width="300" height="300" transform="translate(421 52)" fill="#fff"/>
    </clipPath>
  </defs>
  <g id=":_logo-COMMSCOPE" data-name=": logo-COMMSCOPE" transform="translate(-421 -52)">
    <rect id="Rectangle_2" data-name="Rectangle 2" width="300" height="300" transform="translate(421 52)" fill="#fff"/>
    <g id="Mask_Group_2" data-name="Mask Group 2" clip-path="url(#clip-path)">
      <path id="Shape_2_copy_2" data-name="Shape 2 copy 2" d="M23.384,6.977a11.646,11.646,0,0,0-7.722-2.947C9.1,4.029,4.1,9.648,4.1,16.3c0,6.574,4.968,12.2,11.486,12.2a11.546,11.546,0,0,0,7.8-3.108l1.848,2.886a14.966,14.966,0,0,1-9.53,3.65C7.36,32.189.448,25.112.448,16.424A15.588,15.588,0,0,1,16.01.6a12.435,12.435,0,0,1,9.223,3.57ZM55.01,16.264a15.333,15.333,0,1,1-30.659,0A15.582,15.582,0,0,1,39.682.6a15.581,15.581,0,0,1,15.33,15.664Zm-3.651,0c0-6.616-4.812-12.157-11.679-12.157S28,9.648,28,16.264A11.918,11.918,0,0,0,39.682,28.421,11.915,11.915,0,0,0,51.361,16.264Zm84.463-8.421a4.027,4.027,0,0,0-4.257-3.736c-2.328,0-4.89,1.635-4.89,4.266,0,2.35,2.251,3.587,4.075,4.3l2.095.837c4.154,1.673,7.26,4.025,7.26,9.048a9.139,9.139,0,0,1-9.355,9.367c-4.736,0-8.6-3.406-9.042-9.134l3.688-.072a5.536,5.536,0,1,0,11.061-.16c0-3.228-2.522-4.623-5.046-5.7l-2.019-.877c-3.337-1.475-6.366-3.427-6.366-7.611,0-4.865,4.192-7.774,8.616-7.774,3.262,0,7,2,7.529,7.257Zm66.23,23.448h-3.644V1.238h4.187c9.006,0,11.8,3.189,11.8,8.689,0,6.337-4.693,8.77-10.246,8.77h-2.095V31.29Zm0-15.943h1.168c3.723,0,7.76-.718,7.76-5.5,0-4.7-4.346-5.262-7.955-5.262h-.973ZM217,1.238h15.718V4.665h-12.07v8.41h11.721V16.5H220.645v11.36h12.07v3.428H217ZM164.5,6.977a11.635,11.635,0,0,0-7.722-2.947c-6.56,0-11.567,5.62-11.567,12.276,0,6.574,4.969,12.2,11.488,12.2a11.538,11.538,0,0,0,7.8-3.108l1.852,2.886a14.973,14.973,0,0,1-9.536,3.648c-8.338.26-15.253-6.817-15.253-15.5A15.589,15.589,0,0,1,157.124.6a12.442,12.442,0,0,1,9.226,3.57ZM83.083,31.285h3.681L84.946,1.32h-4.8l-5.2,14.493c-1.3,3.78-2.336,7.07-3.073,10.092h-.13c-.734-3.113-1.731-6.4-2.943-10.092L63.821,1.32H59.015L56.981,31.285h3.594l.779-12.847c.259-4.492.476-9.515.563-13.25H62c.825,3.557,1.992,7.424,3.378,11.649L70.1,31.1h2.857l5.15-14.534c1.472-4.092,2.685-7.87,3.68-11.383h.129c-.042,3.735.217,8.758.435,12.937Zm32.928,0h3.681L117.874,1.32h-4.8l-5.195,14.493c-1.3,3.78-2.336,7.07-3.074,10.092h-.129c-.735-3.113-1.732-6.4-2.943-10.092L96.749,1.32h-4.8L89.912,31.285H93.5l.781-12.847c.259-4.492.475-9.515.562-13.25h.086c.822,3.557,1.992,7.424,3.378,11.649L103.028,31.1h2.853l5.151-14.534c1.472-4.092,2.683-7.87,3.678-11.383h.131c-.044,3.735.217,8.758.433,12.937ZM238.2,4.809h.387a.63.63,0,0,1,.736.578,2.97,2.97,0,0,0,.28.867h.887a2.4,2.4,0,0,1-.259-.89c-.108-.487-.3-.776-.648-.887V4.434a.933.933,0,0,0,.733-.867,1,1,0,0,0-.345-.776,1.974,1.974,0,0,0-1.232-.289,6.569,6.569,0,0,0-1.362.133V6.253h.823V4.808Zm.02-1.642a1.962,1.962,0,0,1,.455-.044c.519,0,.754.223.754.555,0,.379-.366.533-.819.533h-.39V3.167Zm.54-2.442a3.657,3.657,0,1,0,.024,0Zm0,.731a2.779,2.779,0,0,1,2.725,2.908,2.748,2.748,0,0,1-2.7,2.907,2.787,2.787,0,0,1-2.769-2.907,2.793,2.793,0,0,1,2.725-2.908h.02Zm-51.7.361c-4.8-1.762-11.154.608-11.813,5.414-.627,4.6,2.143,7.19,7.98,8.344,6.055,1.194,5.362,6.475,3.839,8.252a8.278,8.278,0,0,1-9.159,2.1,12.652,12.652,0,0,1-9.362-14.556c1.2-7.362,7.249-10.994,13.482-10.98a16.04,16.04,0,1,0,5.033,1.425ZM14.015,56v8.565a.184.184,0,0,1-.189.189h-.674a.184.184,0,0,1-.189-.189V55.972c0-4.2-1.348-4.768-4.208-4.768H4.036V64.563a.184.184,0,0,1-.189.189H3.173a.17.17,0,0,1-.189-.189v-13.9a.226.226,0,0,1,.217-.217,54.084,54.084,0,0,1,5.447-.186c3.669,0,5.368.726,5.368,5.736Zm15.076,1.563c0,5.791-1.106,7.326-5.637,7.326-4.558,0-5.637-1.535-5.637-7.326s1.08-7.3,5.64-7.3C27.986,50.263,29.091,51.77,29.091,57.561Zm-10.249,0c0,5.063.863,6.383,4.612,6.383,3.722,0,4.585-1.32,4.585-6.383S27.176,51.2,23.454,51.2c-3.747,0-4.611,1.293-4.611,6.357Zm31.53-7.138a.154.154,0,0,1,.162.217L48.052,61.387c-.755,3.232-.971,3.5-2.319,3.5-1.43,0-1.592-.269-2.4-3.5L41.12,52.472l-2.185,8.915c-.809,3.232-.971,3.5-2.4,3.5-1.349,0-1.564-.269-2.32-3.5L31.734,50.64a.155.155,0,0,1,.162-.217h.7a.2.2,0,0,1,.189.162L35.214,61.2c.566,2.343.755,2.666,1.295,2.666.674,0,.782-.161,1.43-2.666l2.373-9.615c.081-.35.162-.431.351-.431h.944c.189,0,.27.081.351.431L44.331,61.2c.647,2.5.755,2.666,1.43,2.666.539,0,.728-.325,1.295-2.666l2.428-10.612a.2.2,0,0,1,.217-.162h.674ZM79.285,56v8.565a.184.184,0,0,1-.189.189h-.673a.164.164,0,0,1-.162-.189V55.972c0-4.2-1.375-4.768-4.234-4.768a20.366,20.366,0,0,0-4.4.431,7.113,7.113,0,0,1,.809,3.959v8.969a.152.152,0,0,1-.162.189h-.7a.164.164,0,0,1-.162-.189v-9c0-4.2-1.375-4.363-4.234-4.363H61.243V64.564a.184.184,0,0,1-.189.189H60.38a.17.17,0,0,1-.189-.189v-13.9a.226.226,0,0,1,.217-.217,45.507,45.507,0,0,1,4.692-.186,7.639,7.639,0,0,1,3.8.674,19.2,19.2,0,0,1,5.044-.674c3.641,0,5.34.726,5.34,5.736Zm14.672.916v.808c0,.242-.027.35-.4.35H84.168c.054,4.633.809,5.872,4.45,5.872h3.911a.144.144,0,0,1,.162.162v.485a.131.131,0,0,1-.135.161c-1.025.135-3.21.135-3.937.135-4.612,0-5.5-1.508-5.5-7.353s.889-7.271,5.5-7.271c4.262,0,5.288,1.319,5.342,6.652Zm-9.791.189h8.766c-.054-4.9-.863-5.9-4.316-5.9-3.667,0-4.422,1.185-4.449,5.9Zm23.735-.189v.808c0,.242-.027.35-.4.35H98.112c.054,4.633.809,5.872,4.45,5.872h3.911a.144.144,0,0,1,.162.162v.485a.131.131,0,0,1-.135.161c-1.025.135-3.21.135-3.937.135-4.612,0-5.5-1.508-5.5-7.353s.889-7.271,5.5-7.271c4.262,0,5.287,1.319,5.342,6.652Zm-9.791.189h8.766c-.054-4.9-.863-5.9-4.316-5.9-3.667,0-4.422,1.185-4.449,5.9Zm14.7-10.8c.108-.027.189,0,.189.161v3.959h3.21a.184.184,0,0,1,.189.189v.539a.184.184,0,0,1-.189.189H113V62.356c0,1.239.377,1.589,1.726,1.589h1.753a.164.164,0,0,1,.189.162v.485a.161.161,0,0,1-.162.189,15.836,15.836,0,0,1-1.726.108c-1.969,0-2.832-.458-2.832-2.424V51.34h-1.589a.164.164,0,0,1-.162-.189v-.539a.164.164,0,0,1,.162-.189h1.589V46.654a.178.178,0,0,1,.162-.189Zm14.645,4.067c.135.027.135.081.135.189v.458a.152.152,0,0,1-.162.188h-4.666c-1.052,0-3.048.162-3.048,1.993v.593c0,1.185.27,1.858,1.861,2.532l4.342,1.832c1.861.808,2.266,1.831,2.266,3.232v.431c0,2.4-1.241,3.07-5.044,3.07-.863,0-3.56-.027-4.4-.135a.152.152,0,0,1-.162-.161v-.485a.164.164,0,0,1,.189-.162h4.4c2.994,0,3.992-.512,3.992-2.128v-.458a2.289,2.289,0,0,0-1.7-2.343l-4.371-1.832c-2.023-.862-2.4-1.885-2.4-3.421v-.592c0-2.747,2.778-2.909,4.262-2.909.646,0,3.451,0,4.5.109ZM149.465,56v8.565a.184.184,0,0,1-.189.189H148.6a.184.184,0,0,1-.189-.189V55.972c0-4.2-1.349-4.768-4.208-4.768h-4.72V64.563a.184.184,0,0,1-.189.189h-.674a.17.17,0,0,1-.189-.189v-13.9a.226.226,0,0,1,.217-.217,54.081,54.081,0,0,1,5.446-.186c3.669,0,5.369.726,5.369,5.736Zm14.672.916v.808c0,.242-.027.35-.4.35h-9.386c.054,4.633.809,5.872,4.45,5.872h3.911a.144.144,0,0,1,.162.162v.485a.131.131,0,0,1-.135.161c-1.025.135-3.21.135-3.937.135-4.613,0-5.5-1.508-5.5-7.353s.889-7.272,5.5-7.272c4.262,0,5.286,1.319,5.34,6.652Zm-9.791.189h8.766c-.054-4.9-.863-5.9-4.316-5.9-3.668,0-4.423,1.185-4.45,5.9Zm22.521-6.68a.125.125,0,0,1,.108.217l-4.666,6.491,5.341,7.4c.054.108.027.217-.108.217h-.917a.181.181,0,0,1-.189-.108l-4.748-6.653-4.747,6.652a.219.219,0,0,1-.217.108h-.89a.125.125,0,0,1-.108-.217l5.34-7.407L166.4,50.638c-.081-.108-.054-.217.081-.217h.917a.28.28,0,0,1,.217.108l4.073,5.71,4.073-5.71a.28.28,0,0,1,.217-.108h.89Zm4.909-4.121c.108-.027.189,0,.189.161v3.959h3.21a.184.184,0,0,1,.189.189v.539a.184.184,0,0,1-.189.189h-3.21V62.356c0,1.239.377,1.589,1.726,1.589h1.753a.164.164,0,0,1,.189.162v.485a.161.161,0,0,1-.161.189,15.848,15.848,0,0,1-1.727.108c-1.969,0-2.832-.458-2.832-2.424V51.34h-1.592a.164.164,0,0,1-.161-.189v-.539a.163.163,0,0,1,.161-.189h1.592V46.654a.178.178,0,0,1,.161-.189Z" transform="translate(454.691 178.716)" fill-rule="evenodd"/>
    </g>
  </g>
</svg>
